<?xml version="1.0" standalone="no"?>
<svg xmlns="http://www.w3.org/2000/svg" xmlns:xlink="http://www.w3.org/1999/xlink" width="1019pt" height="764pt" viewBox="0.00 0.00 1018.76 764">
<g id="graph0" class="graph" transform="translate(4,760) scale(1)" data-name="G">

<polygon fill="#2e3e56" stroke="none" points="-4,4 -4,-760 1014.76,-760 1014.76,4 -4,4"/>
<g id="clust1" class="cluster" data-name="clusterGenericCompliance">

<path fill="#445773" stroke="#445773" d="M20,-8C20,-8 990.76,-8 990.76,-8 996.76,-8 1002.76,-14 1002.76,-20 1002.76,-20 1002.76,-599 1002.76,-599 1002.76,-605 996.76,-611 990.76,-611 990.76,-611 20,-611 20,-611 14,-611 8,-605 8,-599 8,-599 8,-20 8,-20 8,-14 14,-8 20,-8" style=""/>
<text text-anchor="middle" x="505.38" y="-594.4" font-family="Times,serif" font-size="14.00" fill="#f0f0f0" style="">GenericCompliance</text>
</g>
<g id="clust2" class="cluster" data-name="cluster_01">

<polygon fill="#2e3e56" stroke="black" points="10.53,-619 10.53,-748 296.37,-748 296.37,-619 10.53,-619" style=""/>
<text text-anchor="middle" x="153.45" y="-731.4" font-family="Times,serif" font-size="14.00" style="">Legend</text>
</g>
<!-- GenericCompliance.&lt;Constructor&gt; -->
<g id="node1" class="node" pointer-events="visible" data-name="GenericCompliance.&lt;Constructor&gt;">

<ellipse fill="#ff9797" stroke="#ff9797" stroke-width="3" cx="83.53" cy="-541" rx="67.55" ry="18"/>
<text text-anchor="middle" x="83.53" y="-536.8" font-family="Times,serif" font-size="14.00">&lt;Constructor&gt;</text>
</g>
<!-- GenericCompliance._grantRole -->
<g id="node15" class="node" pointer-events="visible" data-name="GenericCompliance._grantRole">

<ellipse fill="#edad56" stroke="#edad56" stroke-width="3" cx="261.37" cy="-541" rx="53.89" ry="18"/>
<text text-anchor="middle" x="261.37" y="-536.8" font-family="Times,serif" font-size="14.00">_grantRole</text>
</g><g id="edge1" class="edge" data-name="GenericCompliance.&lt;Constructor&gt;-&gt;GenericCompliance._grantRole" data-comment="GenericCompliance._grantRole">

<path fill="none" stroke="#1bc6a6" stroke-width="2" d="M148.51,-534.48C164.08,-534.17 180.74,-534.17 196.32,-534.48"/>
<polygon fill="#1bc6a6" stroke="#1bc6a6" stroke-width="2" points="195.99,-537.97 206.07,-534.72 196.16,-530.97 195.99,-537.97"/>
</g>
<!-- GenericCompliance.&lt;Constructor&gt;&#45;&gt;GenericCompliance._grantRole -->

<!-- GenericCompliance.&lt;Constructor&gt;&#45;&gt;GenericCompliance._grantRole -->
<g id="edge2" class="edge" data-name="GenericCompliance.&lt;Constructor&gt;-&gt;GenericCompliance._grantRole">

<path fill="none" stroke="#1bc6a6" stroke-width="2" d="M148.51,-547.52C164.08,-547.83 180.74,-547.83 196.32,-547.52"/>
<polygon fill="#1bc6a6" stroke="#1bc6a6" stroke-width="2" points="196.16,-551.03 206.07,-547.28 195.99,-544.03 196.16,-551.03"/>
</g>
<!-- GenericCompliance.generateRoleValues -->
<g id="node2" class="node" pointer-events="visible" data-name="GenericCompliance.generateRoleValues">

<ellipse fill="#edad56" stroke="#edad56" stroke-width="3" cx="486.77" cy="-304" rx="88.58" ry="18"/>
<text text-anchor="middle" x="486.77" y="-299.8" font-family="Times,serif" font-size="14.00">generateRoleValues</text>
</g>
<!-- GenericCompliance.rolesFor -->
<g id="node3" class="node" pointer-events="visible" data-name="GenericCompliance.rolesFor">

<ellipse fill="#edad56" stroke="#edad56" stroke-width="3" cx="951.54" cy="-278" rx="43.45" ry="18"/>
<text text-anchor="middle" x="951.54" y="-273.8" font-family="Times,serif" font-size="14.00">rolesFor</text>
</g>
<!-- GenericCompliance.roleFor -->
<g id="node4" class="node" pointer-events="visible" data-name="GenericCompliance.roleFor">

<ellipse fill="#ff9797" stroke="#ff9797" stroke-width="3" cx="755.08" cy="-88" rx="39.43" ry="18"/>
<text text-anchor="middle" x="755.08" y="-83.8" font-family="Times,serif" font-size="14.00">roleFor</text>
</g><g id="edge3" class="edge" data-name="GenericCompliance.roleFor-&gt;GenericCompliance.rolesFor" data-comment="GenericCompliance.roleFor">

<path fill="none" stroke="#1bc6a6" stroke-width="2" d="M773.68,-105.2C807.71,-138.45 882.74,-211.76 923.27,-251.36"/>
<polygon fill="#1bc6a6" stroke="#1bc6a6" stroke-width="2" points="920.79,-253.83 930.39,-258.31 925.68,-248.82 920.79,-253.83"/>
</g>
<!-- GenericCompliance.roleFor&#45;&gt;GenericCompliance.rolesFor -->

<!-- GenericCompliance.grantRole -->
<g id="node5" class="node" pointer-events="visible" data-name="GenericCompliance.grantRole">

<ellipse fill="#ff9797" stroke="#ff9797" stroke-width="3" cx="486.77" cy="-506" rx="49.23" ry="18"/>
<text text-anchor="middle" x="486.77" y="-501.8" font-family="Times,serif" font-size="14.00">grantRole</text>
</g><g id="edge7" class="edge" data-name="GenericCompliance.grantRole-&gt;GenericCompliance.rolesFor" data-comment="GenericCompliance.grantRole">

<path fill="none" stroke="#1bc6a6" stroke-width="2" d="M528.87,-495.16C550.89,-488.83 578.27,-480.09 601.85,-470 721.47,-418.79 853.74,-339.05 915.36,-300.45"/>
<polygon fill="#1bc6a6" stroke="#1bc6a6" stroke-width="2" points="916.86,-303.64 923.46,-295.35 913.13,-297.71 916.86,-303.64"/>
</g>
<!-- GenericCompliance.grantRole&#45;&gt;GenericCompliance.rolesFor -->
<g id="edge5" class="edge" data-name="GenericCompliance.grantRole-&gt;GenericCompliance.roleFor" data-comment="GenericCompliance.grantRole-&gt;GenericCompliance.rolesFor">

<path fill="none" stroke="#1bc6a6" stroke-width="2" d="M533.14,-498.29C557.15,-491.83 585.04,-480.12 601.85,-459 662.73,-382.51 599.29,-331.84 637.85,-242 659.36,-191.89 700.52,-143.23 727.64,-114.44"/>
<polygon fill="#1bc6a6" stroke="#1bc6a6" stroke-width="2" points="730.09,-116.94 734.49,-107.31 725.04,-112.09 730.09,-116.94"/>
</g>
<!-- GenericCompliance.grantRole&#45;&gt;GenericCompliance.roleFor -->
<g id="edge8" class="edge" data-name="GenericCompliance.grantRole-&gt;GenericCompliance.grantRole" data-comment="GenericCompliance.grantRole-&gt;GenericCompliance.roleFor">

<path fill="none" stroke="#1bc6a6" stroke-width="2" d="M473.1,-524.52C471.2,-533.76 475.76,-542 486.77,-542 491.93,-542 495.67,-540.19 497.99,-537.31"/>
<polygon fill="#1bc6a6" stroke="#1bc6a6" stroke-width="2" points="501.43,-537.98 499.87,-527.5 494.56,-536.66 501.43,-537.98"/>
</g>
<!-- GenericCompliance.grantRole&#45;&gt;GenericCompliance.grantRole -->

<!-- GenericCompliance.grantRole&#45;&gt;GenericCompliance.grantRole -->
<g id="edge9" class="edge" data-name="GenericCompliance.grantRole-&gt;GenericCompliance.grantRole">

<path fill="none" stroke="#1bc6a6" stroke-width="2" d="M464.58,-523.42C451.93,-540.79 459.33,-560 486.77,-560 508.21,-560 517.41,-548.28 514.38,-534.86"/>
<polygon fill="#1bc6a6" stroke="#1bc6a6" stroke-width="2" points="517.7,-533.69 510.25,-526.16 511.37,-536.69 517.7,-533.69"/>
</g>
<!-- GenericCompliance.grantRole&#45;&gt;GenericCompliance.grantRole -->
<g id="edge10" class="edge" data-name="GenericCompliance.grantRole-&gt;GenericCompliance.grantRole">

<path fill="none" stroke="#1bc6a6" stroke-width="2" d="M460.2,-522.27C432.57,-546.92 441.42,-578 486.77,-578 526.44,-578 538.18,-554.2 521.99,-531.74"/>
<polygon fill="#1bc6a6" stroke="#1bc6a6" stroke-width="2" points="524.71,-529.53 515.38,-524.51 519.54,-534.25 524.71,-529.53"/>
</g>
<!-- GenericCompliance.hasRole -->
<g id="node16" class="node" pointer-events="visible" data-name="GenericCompliance.hasRole">

<ellipse fill="#edad56" stroke="#edad56" stroke-width="3" cx="755.08" cy="-269" rx="42.3" ry="18"/>
<text text-anchor="middle" x="755.08" y="-264.8" font-family="Times,serif" font-size="14.00">hasRole</text>
</g><g id="edge4" class="edge" data-name="GenericCompliance.grantRole-&gt;GenericCompliance.hasRole" data-comment="GenericCompliance.hasRole">

<path fill="none" stroke="#1bc6a6" stroke-width="2" d="M536.34,-502.2C558.61,-498.19 583.98,-490.12 601.85,-474 634.15,-444.87 613.8,-419.24 637.85,-383 661.2,-347.81 696.89,-314.87 722.56,-293.53"/>
<polygon fill="#1bc6a6" stroke="#1bc6a6" stroke-width="2" points="724.65,-296.34 730.19,-287.31 720.23,-290.91 724.65,-296.34"/>
</g>
<!-- GenericCompliance.grantRole&#45;&gt;GenericCompliance.hasRole -->

<!-- GenericCompliance.InsufficientRoleAuthorized -->
<g id="node17" class="node" pointer-events="visible" data-name="GenericCompliance.InsufficientRoleAuthorized">

<ellipse fill="#edad56" stroke="#edad56" stroke-width="3" cx="755.08" cy="-506" rx="117.46" ry="18"/>
<text text-anchor="middle" x="755.08" y="-501.8" font-family="Times,serif" font-size="14.00">InsufficientRoleAuthorized</text>
</g><g id="edge6" class="edge" data-name="GenericCompliance.grantRole-&gt;GenericCompliance.InsufficientRoleAuthorized" data-comment="GenericCompliance.InsufficientRoleAuthorized">

<path fill="none" stroke="#1bc6a6" stroke-width="2" d="M537.24,-506C561.83,-506 592.82,-506 623.62,-506"/>
<polygon fill="#1bc6a6" stroke="#1bc6a6" stroke-width="2" points="623.3,-509.5 633.3,-506 623.3,-502.5 623.3,-509.5"/>
</g>
<!-- GenericCompliance.grantRole&#45;&gt;GenericCompliance.InsufficientRoleAuthorized -->

<!-- GenericCompliance.grantCreateRole -->
<g id="node6" class="node" pointer-events="visible" data-name="GenericCompliance.grantCreateRole">

<ellipse fill="#ff9797" stroke="#ff9797" stroke-width="3" cx="261.37" cy="-469" rx="74.13" ry="18"/>
<text text-anchor="middle" x="261.37" y="-464.8" font-family="Times,serif" font-size="14.00">grantCreateRole</text>
</g><g id="edge13" class="edge" data-name="GenericCompliance.grantCreateRole-&gt;GenericCompliance.grantRole" data-comment="GenericCompliance.grantCreateRole">

<path fill="none" stroke="#1bc6a6" stroke-width="2" d="M325.19,-479.41C357.29,-484.72 396.1,-491.15 427.52,-496.35"/>
<polygon fill="#1bc6a6" stroke="#1bc6a6" stroke-width="2" points="426.63,-499.75 437.07,-497.93 427.77,-492.85 426.63,-499.75"/>
</g>
<!-- GenericCompliance.grantCreateRole&#45;&gt;GenericCompliance.grantRole -->
<g id="edge11" class="edge" data-name="GenericCompliance.grantCreateRole-&gt;GenericCompliance.hasRole" data-comment="GenericCompliance.grantCreateRole-&gt;GenericCompliance.grantRole">

<path fill="none" stroke="#1bc6a6" stroke-width="2" d="M336.34,-470.87C429.55,-472.6 580.26,-473.11 601.85,-459 633.14,-438.55 616.17,-413.45 637.85,-383 662.35,-348.6 697.84,-315.52 723.15,-293.94"/>
<polygon fill="#1bc6a6" stroke="#1bc6a6" stroke-width="2" points="725.25,-296.75 730.66,-287.64 720.75,-291.39 725.25,-296.75"/>
</g>
<!-- GenericCompliance.grantCreateRole&#45;&gt;GenericCompliance.hasRole -->

<!-- GenericCompliance.NoCreateRole --><!-- GenericCompliance.grantCreateRole&#45;&gt;GenericCompliance.NoCreateRole -->
<g id="node18" class="node" pointer-events="visible" data-name="GenericCompliance.NoCreateRole" data-comment="GenericCompliance.grantCreateRole-&gt;GenericCompliance.NoCreateRole">

<ellipse fill="#edad56" stroke="#edad56" stroke-width="3" cx="486.77" cy="-432" rx="66.05" ry="18"/>
<text text-anchor="middle" x="486.77" y="-427.8" font-family="Times,serif" font-size="14.00">NoCreateRole</text>
</g><g id="edge12" class="edge" data-name="GenericCompliance.grantCreateRole-&gt;GenericCompliance.NoCreateRole">

<path fill="none" stroke="#1bc6a6" stroke-width="2" d="M325.19,-458.59C353.3,-453.94 386.54,-448.43 415.47,-443.64"/>
<polygon fill="#1bc6a6" stroke="#1bc6a6" stroke-width="2" points="415.72,-447.15 425.02,-442.06 414.58,-440.24 415.72,-447.15"/>
</g>
<!-- GenericCompliance.createRole -->
<g id="node7" class="node" pointer-events="visible" data-name="GenericCompliance.createRole">

<ellipse fill="#ff9797" stroke="#ff9797" stroke-width="3" cx="261.37" cy="-358" rx="52.14" ry="18"/>
<text text-anchor="middle" x="261.37" y="-353.8" font-family="Times,serif" font-size="14.00">createRole</text>
</g>
<!-- GenericCompliance.createRole&#45;&gt;GenericCompliance.generateRoleValues -->
<g id="edge16" class="edge" data-name="GenericCompliance.createRole-&gt;GenericCompliance.generateRoleValues">

<path fill="none" stroke="#1bc6a6" stroke-width="2" d="M305.7,-347.19C325.76,-342.22 349.93,-336.26 371.68,-331 385.01,-327.78 399.23,-324.38 412.94,-321.12"/>
<polygon fill="#1bc6a6" stroke="#1bc6a6" stroke-width="2" points="413.48,-324.59 422.4,-318.88 411.87,-317.78 413.48,-324.59"/>
</g>
<!-- GenericCompliance.createRole&#45;&gt;GenericCompliance.hasRole -->
<g id="edge14" class="edge" data-name="GenericCompliance.createRole-&gt;GenericCompliance.hasRole">

<path fill="none" stroke="#1bc6a6" stroke-width="2" d="M301.52,-370.92C366.01,-390.06 497.8,-420.13 601.85,-385 653.67,-367.51 701.78,-324.56 729.54,-296.11"/>
<polygon fill="#1bc6a6" stroke="#1bc6a6" stroke-width="2" points="732.03,-298.57 736.39,-288.92 726.96,-293.75 732.03,-298.57"/>
</g>
<!-- GenericCompliance.createRole&#45;&gt;GenericCompliance.NoCreateRole -->
<g id="edge15" class="edge" data-name="GenericCompliance.createRole-&gt;GenericCompliance.NoCreateRole">

<path fill="none" stroke="#1bc6a6" stroke-width="2" d="M297.02,-372.27C318.37,-380.82 346.4,-391.62 371.68,-400 388.5,-405.57 406.9,-411.02 423.93,-415.79"/>
<polygon fill="#1bc6a6" stroke="#1bc6a6" stroke-width="2" points="422.56,-419.04 433.13,-418.33 424.42,-412.29 422.56,-419.04"/>
</g>
<!-- GenericCompliance._setRoleAdmin -->
<g id="node19" class="node" pointer-events="visible" data-name="GenericCompliance._setRoleAdmin">

<ellipse fill="#edad56" stroke="#edad56" stroke-width="3" cx="486.77" cy="-358" rx="71.81" ry="18"/>
<text text-anchor="middle" x="486.77" y="-353.8" font-family="Times,serif" font-size="14.00">_setRoleAdmin</text>
</g>
<!-- GenericCompliance.createRole&#45;&gt;GenericCompliance._setRoleAdmin -->
<g id="edge17" class="edge" data-name="GenericCompliance.createRole-&gt;GenericCompliance._setRoleAdmin">

<path fill="none" stroke="#1bc6a6" stroke-width="2" d="M312.5,-352.26C339.63,-351.27 373.8,-351.01 404.62,-351.48"/>
<polygon fill="#1bc6a6" stroke="#1bc6a6" stroke-width="2" points="404.5,-354.98 414.56,-351.67 404.63,-347.98 404.5,-354.98"/>
</g>
<!-- GenericCompliance.createRole&#45;&gt;GenericCompliance._setRoleAdmin -->

<!-- GenericCompliance.hasAnyRoleFor -->
<g id="node8" class="node" pointer-events="visible" data-name="GenericCompliance.hasAnyRoleFor">

<ellipse fill="#f2c383" stroke="#f2c383" stroke-width="3" cx="486.77" cy="-88" rx="72.39" ry="18"/>
<text text-anchor="middle" x="486.77" y="-83.8" font-family="Times,serif" font-size="14.00">hasAnyRoleFor</text>
</g><g id="edge18" class="edge" data-name="GenericCompliance.createRole-&gt;GenericCompliance._setRoleAdmin" data-comment="GenericCompliance.hasAnyRoleFor">

<path fill="none" stroke="#1bc6a6" stroke-width="2" d="M312.5,-363.74C339.63,-364.73 373.8,-364.99 404.62,-364.52"/>
<polygon fill="#1bc6a6" stroke="#1bc6a6" stroke-width="2" points="404.63,-368.02 414.56,-364.33 404.5,-361.02 404.63,-368.02"/>
</g>
<!-- GenericCompliance.hasAnyRoleFor&#45;&gt;GenericCompliance.roleFor -->
<g id="edge20" class="edge" data-name="GenericCompliance.hasAnyRoleFor-&gt;GenericCompliance.roleFor">

<path fill="none" stroke="#1bc6a6" stroke-width="2" d="M546.54,-76.58C594.68,-73.56 661.9,-73.83 706.66,-77.38"/>
<polygon fill="#1bc6a6" stroke="#1bc6a6" stroke-width="2" points="706.2,-80.86 716.48,-78.28 706.84,-73.89 706.2,-80.86"/>
</g>
<!-- GenericCompliance.hasAnyRoleFor&#45;&gt;GenericCompliance.roleFor -->

<!-- GenericCompliance.hasAnyRoleFor&#45;&gt;GenericCompliance.roleFor -->
<g id="edge22" class="edge" data-name="GenericCompliance.hasAnyRoleFor-&gt;GenericCompliance.roleFor">

<path fill="none" stroke="#1bc6a6" stroke-width="2" d="M560.54,-88C605.09,-88 661.09,-88 701.37,-88"/>
<polygon fill="#1bc6a6" stroke="#1bc6a6" stroke-width="2" points="701.37,-91.5 711.37,-88 701.37,-84.5 701.37,-91.5"/>
</g>
<!-- GenericCompliance.hasAnyRoleFor&#45;&gt;GenericCompliance.hasRole -->
<g id="edge19" class="edge" data-name="GenericCompliance.hasAnyRoleFor-&gt;GenericCompliance.hasRole">

<path fill="none" stroke="#1bc6a6" stroke-width="2" d="M553.17,-79.54C569.75,-82.91 587.03,-88.68 601.85,-97 663.47,-131.61 716.69,-198.44 740.61,-238.63"/>
<polygon fill="#1bc6a6" stroke="#1bc6a6" stroke-width="2" points="737.52,-240.28 745.46,-247.3 743.63,-236.86 737.52,-240.28"/>
</g><g id="edge24" class="edge" data-name="GenericCompliance.hasAnyRoleFor-&gt;GenericCompliance.roleFor" data-comment="GenericCompliance.hasAnyRoleFor-&gt;GenericCompliance.hasRole">

<path fill="none" stroke="#1bc6a6" stroke-width="2" d="M546.54,-99.42C594.68,-102.44 661.9,-102.17 706.66,-98.62"/>
<polygon fill="#1bc6a6" stroke="#1bc6a6" stroke-width="2" points="706.84,-102.11 716.48,-97.72 706.2,-95.14 706.84,-102.11"/>
</g>
<!-- GenericCompliance.hasAnyRoleFor&#45;&gt;GenericCompliance.hasRole -->

<!-- GenericCompliance.hasAnyRoleFor&#45;&gt;GenericCompliance.hasRole -->
<g id="edge21" class="edge" data-name="GenericCompliance.hasAnyRoleFor-&gt;GenericCompliance.hasRole">

<path fill="none" stroke="#1bc6a6" stroke-width="2" d="M552.58,-96.78C569.33,-100.77 586.86,-106.58 601.85,-115 658.29,-146.7 707.68,-205.43 733.96,-240.48"/>
<polygon fill="#1bc6a6" stroke="#1bc6a6" stroke-width="2" points="730.83,-242.12 739.57,-248.11 736.47,-237.98 730.83,-242.12"/>
</g>
<!-- GenericCompliance.addEntry -->
<g id="node9" class="node" pointer-events="visible" data-name="GenericCompliance.addEntry">

<ellipse fill="#ffbdb9" stroke="#ffbdb9" stroke-width="3" cx="261.37" cy="-142" rx="46.37" ry="18"/>
<text text-anchor="middle" x="261.37" y="-137.8" font-family="Times,serif" font-size="14.00">addEntry</text>
</g><g id="edge23" class="edge" data-name="GenericCompliance.hasAnyRoleFor-&gt;GenericCompliance.hasRole" data-comment="GenericCompliance.addEntry">

<path fill="none" stroke="#1bc6a6" stroke-width="2" d="M519,-105.4C542.94,-111.8 576.12,-118.55 601.85,-133 652.28,-161.33 697.08,-211.23 724.8,-242.63"/>
<polygon fill="#1bc6a6" stroke="#1bc6a6" stroke-width="2" points="721.94,-244.68 731.18,-249.86 727.18,-240.05 721.94,-244.68"/>
</g>
<!-- GenericCompliance.addEntry&#45;&gt;GenericCompliance.hasAnyRoleFor -->
<g id="edge25" class="edge" data-name="GenericCompliance.addEntry-&gt;GenericCompliance.hasAnyRoleFor">

<path fill="none" stroke="#1bc6a6" stroke-width="2" d="M302.32,-132.03C323.01,-126.9 348.69,-120.56 371.68,-115 386.98,-111.3 403.45,-107.37 418.98,-103.69"/>
<polygon fill="#1bc6a6" stroke="#1bc6a6" stroke-width="2" points="419.32,-107.21 428.25,-101.5 417.71,-100.39 419.32,-107.21"/>
</g>
<!-- GenericCompliance.setNonceAndPrevious -->
<g id="node10" class="node" pointer-events="visible" data-name="GenericCompliance.setNonceAndPrevious">

<ellipse fill="#edad56" stroke="#edad56" stroke-width="3" cx="486.77" cy="-250" rx="97.29" ry="18"/>
<text text-anchor="middle" x="486.77" y="-245.8" font-family="Times,serif" font-size="14.00">setNonceAndPrevious</text>
</g>
<!-- GenericCompliance.addEntry&#45;&gt;GenericCompliance.setNonceAndPrevious -->
<g id="edge27" class="edge" data-name="GenericCompliance.addEntry-&gt;GenericCompliance.setNonceAndPrevious">

<path fill="none" stroke="#1bc6a6" stroke-width="2" d="M280.96,-159.54C301.57,-178.02 336.55,-206.67 371.68,-223 380.57,-227.13 390.16,-230.66 399.86,-233.68"/>
<polygon fill="#1bc6a6" stroke="#1bc6a6" stroke-width="2" points="398.68,-236.98 409.26,-236.38 400.61,-230.25 398.68,-236.98"/>
</g>
<!-- GenericCompliance.generateId -->
<g id="node11" class="node" pointer-events="visible" data-name="GenericCompliance.generateId">

<ellipse fill="#edad56" stroke="#edad56" stroke-width="3" cx="486.77" cy="-142" rx="51.56" ry="18"/>
<text text-anchor="middle" x="486.77" y="-137.8" font-family="Times,serif" font-size="14.00">generateId</text>
</g>
<!-- GenericCompliance.addEntry&#45;&gt;GenericCompliance.generateId -->
<g id="edge28" class="edge" data-name="GenericCompliance.addEntry-&gt;GenericCompliance.generateId">

<path fill="none" stroke="#1bc6a6" stroke-width="2" d="M309.2,-142C341.68,-142 385.35,-142 421.13,-142"/>
<polygon fill="#1bc6a6" stroke="#1bc6a6" stroke-width="2" points="420.9,-145.5 430.9,-142 420.9,-138.5 420.9,-145.5"/>
</g>
<!-- GenericCompliance.updateObjectAndIndex -->
<g id="node12" class="node" pointer-events="visible" data-name="GenericCompliance.updateObjectAndIndex">

<ellipse fill="#edad56" stroke="#edad56" stroke-width="3" cx="486.77" cy="-196" rx="101.27" ry="18"/>
<text text-anchor="middle" x="486.77" y="-191.8" font-family="Times,serif" font-size="14.00">updateObjectAndIndex</text>
</g>
<!-- GenericCompliance.addEntry&#45;&gt;GenericCompliance.updateObjectAndIndex -->
<g id="edge29" class="edge" data-name="GenericCompliance.addEntry-&gt;GenericCompliance.updateObjectAndIndex">

<path fill="none" stroke="#1bc6a6" stroke-width="2" d="M302.32,-151.97C323.01,-157.1 348.69,-163.44 371.68,-169 383.85,-171.94 396.76,-175.03 409.34,-178.02"/>
<polygon fill="#1bc6a6" stroke="#1bc6a6" stroke-width="2" points="408.3,-181.37 418.84,-180.27 409.92,-174.56 408.3,-181.37"/>
</g>
<!-- GenericCompliance.InsufficientRolesAvailable -->
<g id="node20" class="node" pointer-events="visible" data-name="GenericCompliance.InsufficientRolesAvailable">

<ellipse fill="#edad56" stroke="#edad56" stroke-width="3" cx="486.77" cy="-34" rx="115.17" ry="18"/>
<text text-anchor="middle" x="486.77" y="-29.8" font-family="Times,serif" font-size="14.00">InsufficientRolesAvailable</text>
</g>
<!-- GenericCompliance.addEntry&#45;&gt;GenericCompliance.InsufficientRolesAvailable -->
<g id="edge26" class="edge" data-name="GenericCompliance.addEntry-&gt;GenericCompliance.InsufficientRolesAvailable">

<path fill="none" stroke="#1bc6a6" stroke-width="2" d="M285.19,-125.27C299.68,-114.63 318.81,-100.54 335.68,-88 351.74,-76.07 353.57,-69.48 371.68,-61 379.03,-57.56 386.85,-54.54 394.82,-51.89"/>
<polygon fill="#1bc6a6" stroke="#1bc6a6" stroke-width="2" points="395.57,-55.32 404.1,-49.03 393.51,-48.63 395.57,-55.32"/>
</g>
<!-- GenericCompliance.getEntry -->
<g id="node13" class="node" pointer-events="visible" data-name="GenericCompliance.getEntry">

<ellipse fill="#ff9797" stroke="#ff9797" stroke-width="3" cx="261.37" cy="-61" rx="44.08" ry="18"/>
<text text-anchor="middle" x="261.37" y="-56.8" font-family="Times,serif" font-size="14.00">getEntry</text>
</g>
<!-- GenericCompliance.getEntry&#45;&gt;GenericCompliance.hasAnyRoleFor -->
<g id="edge30" class="edge" data-name="GenericCompliance.getEntry-&gt;GenericCompliance.hasAnyRoleFor">

<path fill="none" stroke="#1bc6a6" stroke-width="2" d="M305.18,-66.17C333.94,-69.65 372.69,-74.33 406.93,-78.47"/>
<polygon fill="#1bc6a6" stroke="#1bc6a6" stroke-width="2" points="406.45,-81.94 416.79,-79.66 407.29,-74.99 406.45,-81.94"/>
</g>
<!-- GenericCompliance.getEntry&#45;&gt;GenericCompliance.InsufficientRolesAvailable -->
<g id="edge31" class="edge" data-name="GenericCompliance.getEntry-&gt;GenericCompliance.InsufficientRolesAvailable">

<path fill="none" stroke="#1bc6a6" stroke-width="2" d="M305.18,-55.83C326.41,-53.26 353.09,-50.04 379.37,-46.86"/>
<polygon fill="#1bc6a6" stroke="#1bc6a6" stroke-width="2" points="379.71,-50.34 389.22,-45.67 378.87,-43.39 379.71,-50.34"/>
</g>
<!-- GenericCompliance.getLatest -->
<g id="node14" class="node" pointer-events="visible" data-name="GenericCompliance.getLatest">

<ellipse fill="#ffbdb9" stroke="#ffbdb9" stroke-width="3" cx="83.53" cy="-61" rx="46.36" ry="18"/>
<text text-anchor="middle" x="83.53" y="-56.8" font-family="Times,serif" font-size="14.00">getLatest</text>
</g>
<!-- GenericCompliance.getLatest&#45;&gt;GenericCompliance.getEntry -->
<g id="edge32" class="edge" data-name="GenericCompliance.getLatest-&gt;GenericCompliance.getEntry">

<path fill="none" stroke="#1bc6a6" stroke-width="2" d="M131.19,-61C153.23,-61 179.76,-61 203.02,-61"/>
<polygon fill="#1bc6a6" stroke="#1bc6a6" stroke-width="2" points="202.89,-64.5 212.89,-61 202.89,-57.5 202.89,-64.5"/>
</g>
<!-- key -->
<g id="node21" class="node" pointer-events="visible" data-name="key">

<polygon fill="#edad56" stroke="none" stroke-width="3" points="148.53,-715 18.53,-715 18.53,-627 148.53,-627 148.53,-715"/>
<text text-anchor="start" x="68.16" y="-696.4" font-family="Times,serif" font-size="14.00">Internal Call</text>
<text text-anchor="start" x="64.27" y="-676.4" font-family="Times,serif" font-size="14.00">External Call</text>
<text text-anchor="start" x="41.73" y="-656.4" font-family="Times,serif" font-size="14.00">Defined Contract</text>
<text text-anchor="start" x="28.13" y="-636.4" font-family="Times,serif" font-size="14.00">Undefined Contract</text>
</g>
<!-- key2 -->
<g id="node22" class="node" pointer-events="visible" data-name="key2">

<polygon fill="#edad56" stroke="none" stroke-width="3" points="288.37,-715 234.37,-715 234.37,-627 288.37,-627 288.37,-715"/>
<text text-anchor="start" x="251.37" y="-696.4" font-family="Times,serif" font-size="14.00">   </text>
<text text-anchor="start" x="251.37" y="-676.4" font-family="Times,serif" font-size="14.00">   </text>
<polygon fill="#445773" stroke="none" points="249.37,-651 249.37,-671 274.37,-671 274.37,-651 249.37,-651"/>
<text text-anchor="start" x="251.37" y="-656.4" font-family="Times,serif" font-size="14.00">   </text>
<polygon fill="none" stroke="#e8726d" points="251.37,-633 251.37,-649 272.37,-649 272.37,-633 251.37,-633"/>
</g>
<!-- key&#45;&gt;key2 -->
<g id="edge33" class="edge" data-name="key-&gt;key2">

<path fill="none" stroke="#1bc6a6" stroke-width="2" d="M141.53,-701C184.37,-701 198.22,-701 235.41,-701"/>
<polygon fill="#1bc6a6" stroke="#1bc6a6" stroke-width="2" points="235.34,-704.5 245.34,-701 235.34,-697.5 235.34,-704.5"/>
</g>
<!-- key&#45;&gt;key2 -->


<g id="edge34" class="edge" data-name="key-&gt;key2">

<path fill="none" stroke="white" stroke-width="2" d="M141.53,-681C184.37,-681 198.22,-681 235.41,-681"/>
<polygon fill="white" stroke="white" stroke-width="2" points="235.34,-684.5 245.34,-681 235.34,-677.5 235.34,-684.5"/>
</g>
</g>
</svg>