<?xml version="1.0" encoding="UTF-8" standalone="no"?>
<!DOCTYPE svg PUBLIC "-//W3C//DTD SVG 1.1//EN"
 "http://www.w3.org/Graphics/SVG/1.1/DTD/svg11.dtd">
<!-- Generated by graphviz version 5.0.0 (20220707.1540)
 -->
<!-- Title: UmlClassDiagram Pages: 1 -->
<svg width="3002pt" height="825pt"
 viewBox="0.00 0.00 3002.46 825.20" xmlns="http://www.w3.org/2000/svg" xmlns:xlink="http://www.w3.org/1999/xlink">
<g id="graph0" class="graph" transform="scale(1 1) rotate(0) translate(4 821.2)">
<title>UmlClassDiagram</title>
<polygon fill="white" stroke="transparent" points="-4,4 -4,-821.2 2998.46,-821.2 2998.46,4 -4,4"/>
<!-- 0 -->
<g id="node1" class="node">
<title>0</title>
<polygon fill="#f2f2f2" stroke="black" points="982.63,-0.5 982.63,-511.7 2011.83,-511.7 2011.83,-0.5 982.63,-0.5"/>
<text text-anchor="middle" x="1497.23" y="-495.1" font-family="Times,serif" font-size="14.00">GenericCompliance</text>
<text text-anchor="middle" x="1497.23" y="-478.3" font-family="Times,serif" font-size="14.00">examples/docs.topos.technology/compliance&#45;smart&#45;contract/genericCompliance.sol</text>
<polyline fill="none" stroke="black" points="982.63,-470.1 2011.83,-470.1 "/>
<text text-anchor="start" x="990.63" y="-453.5" font-family="Times,serif" font-size="14.00">Private:</text>
<text text-anchor="start" x="990.63" y="-436.7" font-family="Times,serif" font-size="14.00"> &#160;&#160;objects: mapping(bytes32=&gt;Record)</text>
<text text-anchor="start" x="990.63" y="-419.9" font-family="Times,serif" font-size="14.00"> &#160;&#160;index: mapping(string=&gt;Store)</text>
<text text-anchor="start" x="990.63" y="-403.1" font-family="Times,serif" font-size="14.00">Public:</text>
<text text-anchor="start" x="990.63" y="-386.3" font-family="Times,serif" font-size="14.00"> &#160;&#160;CREATE_ROLE: bytes32</text>
<text text-anchor="start" x="990.63" y="-369.5" font-family="Times,serif" font-size="14.00"> &#160;&#160;entityRoles: mapping(bytes32=&gt;bytes32[3])</text>
<text text-anchor="start" x="990.63" y="-352.7" font-family="Times,serif" font-size="14.00"> &#160;&#160;resourceRoles: mapping(bytes32=&gt;bytes32[3])</text>
<text text-anchor="start" x="990.63" y="-335.9" font-family="Times,serif" font-size="14.00"> &#160;&#160;organizationRoles: mapping(bytes32=&gt;bytes32[3])</text>
<text text-anchor="start" x="990.63" y="-319.1" font-family="Times,serif" font-size="14.00"> &#160;&#160;length: uint</text>
<polyline fill="none" stroke="black" points="982.63,-310.9 2011.83,-310.9 "/>
<text text-anchor="start" x="990.63" y="-294.3" font-family="Times,serif" font-size="14.00">Internal:</text>
<text text-anchor="start" x="990.63" y="-277.5" font-family="Times,serif" font-size="14.00"> &#160;&#160;&#160;generateRoleValues(id: bytes32, variant: RoleVariant): bytes32[3]</text>
<text text-anchor="start" x="990.63" y="-260.7" font-family="Times,serif" font-size="14.00"> &#160;&#160;&#160;hasAnyRoleFor(addr: address, entityId: bytes32, resourceId: bytes32, organizationId: bytes32, access: RoleAccess): bool</text>
<text text-anchor="start" x="990.63" y="-243.9" font-family="Times,serif" font-size="14.00"> &#160;&#160;&#160;setNonceAndPrevious(lvars: AddRecordVars)</text>
<text text-anchor="start" x="990.63" y="-227.1" font-family="Times,serif" font-size="14.00"> &#160;&#160;&#160;generateId(gvars: generateIdVars): bytes32</text>
<text text-anchor="start" x="990.63" y="-210.3" font-family="Times,serif" font-size="14.00"> &#160;&#160;&#160;updateObjectAndIndex(lvars: AddRecordVars, record: Record)</text>
<text text-anchor="start" x="990.63" y="-193.5" font-family="Times,serif" font-size="14.00">External:</text>
<text text-anchor="start" x="990.63" y="-176.7" font-family="Times,serif" font-size="14.00"> &#160;&#160;&#160;addRecord(key: string, receivingEntityId: bytes32, resourceId: bytes32, organizationId: bytes32, ref: string, status: bytes32, statusIssueDate: uint, owner: address): (success: bool)</text>
<text text-anchor="start" x="990.63" y="-159.9" font-family="Times,serif" font-size="14.00"> &#160;&#160;&#160;getLatest(_key: string): (bytes32, bytes32, bytes32, bytes32, bytes32, bytes32, address, uint, uint, uint, string, bool)</text>
<text text-anchor="start" x="990.63" y="-143.1" font-family="Times,serif" font-size="14.00">Public:</text>
<text text-anchor="start" x="990.63" y="-126.3" font-family="Times,serif" font-size="14.00"> &#160;&#160;&#160;&lt;&lt;event&gt;&gt; AddRecord(key: string, id: bytes32, receivingEntityId: bytes32, resourceId: bytes32, organizationId: bytes32, status: bytes32)</text>
<text text-anchor="start" x="990.63" y="-109.5" font-family="Times,serif" font-size="14.00"> &#160;&#160;&#160;constructor()</text>
<text text-anchor="start" x="990.63" y="-92.7" font-family="Times,serif" font-size="14.00"> &#160;&#160;&#160;rolesFor(id: bytes32, variant: RoleVariant): bytes32[3]</text>
<text text-anchor="start" x="990.63" y="-75.9" font-family="Times,serif" font-size="14.00"> &#160;&#160;&#160;roleFor(id: bytes32, variant: RoleVariant, access: RoleAccess): bytes32</text>
<text text-anchor="start" x="990.63" y="-59.1" font-family="Times,serif" font-size="14.00"> &#160;&#160;&#160;grantRole(addr: address, id: bytes32, variant: RoleVariant, access: RoleAccess)</text>
<text text-anchor="start" x="990.63" y="-42.3" font-family="Times,serif" font-size="14.00"> &#160;&#160;&#160;grantCreateRole(addr: address)</text>
<text text-anchor="start" x="990.63" y="-25.5" font-family="Times,serif" font-size="14.00"> &#160;&#160;&#160;createRole(id: bytes32, variant: RoleVariant)</text>
<text text-anchor="start" x="990.63" y="-8.7" font-family="Times,serif" font-size="14.00"> &#160;&#160;&#160;getRecord(_id: bytes32): (bytes32, bytes32, bytes32, bytes32, bytes32, bytes32, address, uint, uint, uint, string, bool)</text>
</g>
<!-- 1 -->
<g id="node2" class="node">
<title>1</title>
<polygon fill="#f2f2f2" stroke="black" points="0,-548.7 0,-816.7 484.46,-816.7 484.46,-548.7 0,-548.7"/>
<text text-anchor="middle" x="242.23" y="-800.1" font-family="Times,serif" font-size="14.00">&lt;&lt;Struct&gt;&gt;</text>
<text text-anchor="middle" x="242.23" y="-783.3" font-family="Times,serif" font-size="14.00">Record</text>
<text text-anchor="middle" x="242.23" y="-766.5" font-family="Times,serif" font-size="14.00">examples/docs.topos.technology/compliance&#45;smart&#45;contract/genericCompliance.sol</text>
<polyline fill="none" stroke="black" points="0,-758.3 484.46,-758.3 "/>
<text text-anchor="start" x="8" y="-741.7" font-family="Times,serif" font-size="14.00">id: bytes32</text>
<text text-anchor="start" x="8" y="-724.9" font-family="Times,serif" font-size="14.00">receivingEntityId: bytes32</text>
<text text-anchor="start" x="8" y="-708.1" font-family="Times,serif" font-size="14.00">resourceId: bytes32</text>
<text text-anchor="start" x="8" y="-691.3" font-family="Times,serif" font-size="14.00">organizationId: bytes32</text>
<text text-anchor="start" x="8" y="-674.5" font-family="Times,serif" font-size="14.00">status: bytes32</text>
<text text-anchor="start" x="8" y="-657.7" font-family="Times,serif" font-size="14.00">previous: bytes32</text>
<text text-anchor="start" x="8" y="-640.9" font-family="Times,serif" font-size="14.00">owner: address</text>
<text text-anchor="start" x="8" y="-624.1" font-family="Times,serif" font-size="14.00">statusIssueDate: uint</text>
<text text-anchor="start" x="8" y="-607.3" font-family="Times,serif" font-size="14.00">timestamp: uint</text>
<text text-anchor="start" x="8" y="-590.5" font-family="Times,serif" font-size="14.00">nonce: uint</text>
<text text-anchor="start" x="8" y="-573.7" font-family="Times,serif" font-size="14.00">ref: string</text>
<text text-anchor="start" x="8" y="-556.9" font-family="Times,serif" font-size="14.00">exists: bool</text>
</g>
<!-- 0&#45;&gt;1 -->
<g id="edge7" class="edge">
<title>0&#45;&gt;1</title>
<path fill="none" stroke="black" d="M982.56,-381.85C823.77,-426.57 649.67,-481.68 492.57,-544.83"/>
<polygon fill="black" stroke="black" points="491.16,-541.63 483.2,-548.62 493.78,-548.12 491.16,-541.63"/>
</g>
<!-- 2 -->
<g id="node3" class="node">
<title>2</title>
<polygon fill="#f2f2f2" stroke="black" points="502,-624.3 502,-741.1 986.46,-741.1 986.46,-624.3 502,-624.3"/>
<text text-anchor="middle" x="744.23" y="-724.5" font-family="Times,serif" font-size="14.00">&lt;&lt;Struct&gt;&gt;</text>
<text text-anchor="middle" x="744.23" y="-707.7" font-family="Times,serif" font-size="14.00">Store</text>
<text text-anchor="middle" x="744.23" y="-690.9" font-family="Times,serif" font-size="14.00">examples/docs.topos.technology/compliance&#45;smart&#45;contract/genericCompliance.sol</text>
<polyline fill="none" stroke="black" points="502,-682.7 986.46,-682.7 "/>
<text text-anchor="start" x="510" y="-666.1" font-family="Times,serif" font-size="14.00">head: bytes32</text>
<text text-anchor="start" x="510" y="-649.3" font-family="Times,serif" font-size="14.00">length: uint</text>
<text text-anchor="start" x="510" y="-632.5" font-family="Times,serif" font-size="14.00">exists: bool</text>
</g>
<!-- 0&#45;&gt;2 -->
<g id="edge8" class="edge">
<title>0&#45;&gt;2</title>
<path fill="none" stroke="black" d="M1038.99,-511.75C968.56,-551.6 902.13,-589.37 850.22,-619.14"/>
<polygon fill="black" stroke="black" points="848.29,-616.21 841.36,-624.23 851.78,-622.28 848.29,-616.21"/>
</g>
<!-- 3 -->
<g id="node4" class="node">
<title>3</title>
<polygon fill="#f2f2f2" stroke="black" points="1004,-599.1 1004,-766.3 1488.46,-766.3 1488.46,-599.1 1004,-599.1"/>
<text text-anchor="middle" x="1246.23" y="-749.7" font-family="Times,serif" font-size="14.00">&lt;&lt;Struct&gt;&gt;</text>
<text text-anchor="middle" x="1246.23" y="-732.9" font-family="Times,serif" font-size="14.00">AddRecordVars</text>
<text text-anchor="middle" x="1246.23" y="-716.1" font-family="Times,serif" font-size="14.00">examples/docs.topos.technology/compliance&#45;smart&#45;contract/genericCompliance.sol</text>
<polyline fill="none" stroke="black" points="1004,-707.9 1488.46,-707.9 "/>
<text text-anchor="start" x="1012" y="-691.3" font-family="Times,serif" font-size="14.00">key: string</text>
<text text-anchor="start" x="1012" y="-674.5" font-family="Times,serif" font-size="14.00">timestamp: uint</text>
<text text-anchor="start" x="1012" y="-657.7" font-family="Times,serif" font-size="14.00">id: bytes32</text>
<text text-anchor="start" x="1012" y="-640.9" font-family="Times,serif" font-size="14.00">previous: bytes32</text>
<text text-anchor="start" x="1012" y="-624.1" font-family="Times,serif" font-size="14.00">offset: uint</text>
<text text-anchor="start" x="1012" y="-607.3" font-family="Times,serif" font-size="14.00">nonce: uint</text>
</g>
<!-- 0&#45;&gt;3 -->
<g id="edge11" class="edge">
<title>0&#45;&gt;3</title>
<path fill="none" stroke="black" stroke-dasharray="5,2" d="M1340.07,-511.75C1323.86,-539.43 1308.41,-566.11 1294.88,-589.8"/>
<polygon fill="black" stroke="black" points="1291.7,-588.31 1289.79,-598.73 1297.78,-591.78 1291.7,-588.31"/>
</g>
<!-- 4 -->
<g id="node5" class="node">
<title>4</title>
<polygon fill="#f2f2f2" stroke="black" points="1506,-573.9 1506,-791.5 1990.46,-791.5 1990.46,-573.9 1506,-573.9"/>
<text text-anchor="middle" x="1748.23" y="-774.9" font-family="Times,serif" font-size="14.00">&lt;&lt;Struct&gt;&gt;</text>
<text text-anchor="middle" x="1748.23" y="-758.1" font-family="Times,serif" font-size="14.00">generateIdVars</text>
<text text-anchor="middle" x="1748.23" y="-741.3" font-family="Times,serif" font-size="14.00">examples/docs.topos.technology/compliance&#45;smart&#45;contract/genericCompliance.sol</text>
<polyline fill="none" stroke="black" points="1506,-733.1 1990.46,-733.1 "/>
<text text-anchor="start" x="1514" y="-716.5" font-family="Times,serif" font-size="14.00">receivingEntityId: bytes32</text>
<text text-anchor="start" x="1514" y="-699.7" font-family="Times,serif" font-size="14.00">resourceId: bytes32</text>
<text text-anchor="start" x="1514" y="-682.9" font-family="Times,serif" font-size="14.00">organizationId: bytes32</text>
<text text-anchor="start" x="1514" y="-666.1" font-family="Times,serif" font-size="14.00">previous: bytes32</text>
<text text-anchor="start" x="1514" y="-649.3" font-family="Times,serif" font-size="14.00">status: bytes32</text>
<text text-anchor="start" x="1514" y="-632.5" font-family="Times,serif" font-size="14.00">owner: address</text>
<text text-anchor="start" x="1514" y="-615.7" font-family="Times,serif" font-size="14.00">statusIssueDate: uint</text>
<text text-anchor="start" x="1514" y="-598.9" font-family="Times,serif" font-size="14.00">nonce: uint</text>
<text text-anchor="start" x="1514" y="-582.1" font-family="Times,serif" font-size="14.00">ref: string</text>
</g>
<!-- 0&#45;&gt;4 -->
<g id="edge12" class="edge">
<title>0&#45;&gt;4</title>
<path fill="none" stroke="black" stroke-dasharray="5,2" d="M1641.14,-511.75C1652.07,-530.07 1662.82,-547.96 1673.04,-564.83"/>
<polygon fill="black" stroke="black" points="1670.15,-566.82 1678.33,-573.55 1676.14,-563.19 1670.15,-566.82"/>
</g>
<!-- 5 -->
<g id="node6" class="node">
<title>5</title>
<polygon fill="#f2f2f2" stroke="black" points="2008,-624.3 2008,-741.1 2492.46,-741.1 2492.46,-624.3 2008,-624.3"/>
<text text-anchor="middle" x="2250.23" y="-724.5" font-family="Times,serif" font-size="14.00">&lt;&lt;Enum&gt;&gt;</text>
<text text-anchor="middle" x="2250.23" y="-707.7" font-family="Times,serif" font-size="14.00">RoleVariant</text>
<text text-anchor="middle" x="2250.23" y="-690.9" font-family="Times,serif" font-size="14.00">examples/docs.topos.technology/compliance&#45;smart&#45;contract/genericCompliance.sol</text>
<polyline fill="none" stroke="black" points="2008,-682.7 2492.46,-682.7 "/>
<text text-anchor="start" x="2016" y="-666.1" font-family="Times,serif" font-size="14.00">ENTITY: 0</text>
<text text-anchor="start" x="2016" y="-649.3" font-family="Times,serif" font-size="14.00">RESOURCE: 1</text>
<text text-anchor="start" x="2016" y="-632.5" font-family="Times,serif" font-size="14.00">ORGANIZATION: 2</text>
</g>
<!-- 0&#45;&gt;5 -->
<g id="edge9" class="edge">
<title>0&#45;&gt;5</title>
<path fill="none" stroke="black" stroke-dasharray="5,2" d="M1942.21,-511.75C2013.25,-551.68 2080.93,-589.53 2134.67,-619.33"/>
<polygon fill="black" stroke="black" points="2133.07,-622.44 2143.51,-624.23 2136.46,-616.32 2133.07,-622.44"/>
</g>
<!-- 6 -->
<g id="node7" class="node">
<title>6</title>
<polygon fill="#f2f2f2" stroke="black" points="2510,-624.3 2510,-741.1 2994.46,-741.1 2994.46,-624.3 2510,-624.3"/>
<text text-anchor="middle" x="2752.23" y="-724.5" font-family="Times,serif" font-size="14.00">&lt;&lt;Enum&gt;&gt;</text>
<text text-anchor="middle" x="2752.23" y="-707.7" font-family="Times,serif" font-size="14.00">RoleAccess</text>
<text text-anchor="middle" x="2752.23" y="-690.9" font-family="Times,serif" font-size="14.00">examples/docs.topos.technology/compliance&#45;smart&#45;contract/genericCompliance.sol</text>
<polyline fill="none" stroke="black" points="2510,-682.7 2994.46,-682.7 "/>
<text text-anchor="start" x="2518" y="-666.1" font-family="Times,serif" font-size="14.00">READ: 0</text>
<text text-anchor="start" x="2518" y="-649.3" font-family="Times,serif" font-size="14.00">WRITE: 1</text>
<text text-anchor="start" x="2518" y="-632.5" font-family="Times,serif" font-size="14.00">ADMIN: 2</text>
</g>
<!-- 0&#45;&gt;6 -->
<g id="edge10" class="edge">
<title>0&#45;&gt;6</title>
<path fill="none" stroke="black" stroke-dasharray="5,2" d="M2011.84,-386.7C2168.34,-431.44 2339.31,-486.14 2492.23,-548.2 2541.54,-568.21 2593.83,-595.04 2638.52,-619.4"/>
<polygon fill="black" stroke="black" points="2636.91,-622.51 2647.36,-624.24 2640.27,-616.37 2636.91,-622.51"/>
</g>
<!-- 1&#45;&gt;0 -->
<g id="edge3" class="edge">
<title>1&#45;&gt;0</title>
<path fill="none" stroke="black" d="M484.63,-555.57C490.53,-553.03 496.4,-550.57 502.23,-548.2 651.27,-487.72 817.45,-434.22 970.67,-390.13"/>
<polygon fill="black" stroke="black" points="971.08,-390.01 975.75,-384.51 982.62,-386.7 977.95,-392.2 971.08,-390.01"/>
</g>
<!-- 2&#45;&gt;0 -->
<g id="edge4" class="edge">
<title>2&#45;&gt;0</title>
<path fill="none" stroke="black" d="M850.95,-624.23C903.42,-595.16 970.61,-557.62 1041.73,-517.66"/>
<polygon fill="black" stroke="black" points="1041.79,-517.63 1045.06,-511.2 1052.25,-511.75 1048.98,-518.18 1041.79,-517.63"/>
</g>
<!-- 3&#45;&gt;0 -->
<g id="edge5" class="edge">
<title>3&#45;&gt;0</title>
<path fill="none" stroke="black" d="M1300.76,-598.73C1314.81,-575.84 1330.62,-549.7 1347.01,-522.31"/>
<polygon fill="black" stroke="black" points="1347.17,-522.05 1346.81,-514.85 1353.32,-511.75 1353.68,-518.95 1347.17,-522.05"/>
</g>
<!-- 4&#45;&gt;0 -->
<g id="edge6" class="edge">
<title>4&#45;&gt;0</title>
<path fill="none" stroke="black" d="M1690.27,-573.55C1680.96,-557.36 1670.95,-540.09 1660.56,-522.29"/>
<polygon fill="black" stroke="black" points="1660.45,-522.11 1653.97,-518.95 1654.39,-511.75 1660.88,-514.91 1660.45,-522.11"/>
</g>
<!-- 5&#45;&gt;0 -->
<g id="edge1" class="edge">
<title>5&#45;&gt;0</title>
<path fill="none" stroke="black" d="M2153.1,-624.23C2102.49,-595.16 2036.51,-557.62 1965.91,-517.66"/>
<polygon fill="black" stroke="black" points="1965.91,-517.66 1958.72,-518.19 1955.47,-511.75 1962.66,-511.22 1965.91,-517.66"/>
</g>
<!-- 6&#45;&gt;0 -->
<g id="edge2" class="edge">
<title>6&#45;&gt;0</title>
<path fill="none" stroke="black" d="M2663.73,-624.24C2618.82,-598.65 2562.82,-569.54 2510.23,-548.2 2355.6,-485.45 2182.53,-430.22 2023.79,-385.21"/>
<polygon fill="black" stroke="black" points="2023.45,-385.11 2016.59,-387.33 2011.9,-381.85 2018.76,-379.63 2023.45,-385.11"/>
</g>
</g>
</svg>
