<?xml version="1.0" encoding="UTF-8" standalone="no"?>
<!DOCTYPE svg PUBLIC "-//W3C//DTD SVG 1.1//EN"
 "http://www.w3.org/Graphics/SVG/1.1/DTD/svg11.dtd">
<!-- Generated by graphviz version 5.0.0 (20220707.1540)
 -->
<!-- Title: UmlClassDiagram Pages: 1 -->
<svg width="1370pt" height="590pt"
 viewBox="0.00 0.00 1370.17 590.00" xmlns="http://www.w3.org/2000/svg" xmlns:xlink="http://www.w3.org/1999/xlink">
<g id="graph0" class="graph" transform="scale(1 1) rotate(0) translate(4 586)">
<title>UmlClassDiagram</title>
<polygon fill="white" stroke="transparent" points="-4,4 -4,-586 1366.17,-586 1366.17,4 -4,4"/>
<!-- 0 -->
<g id="node1" class="node">
<title>0</title>
<polygon fill="#f2f2f2" stroke="black" points="0,-0.5 0,-259.7 1362.17,-259.7 1362.17,-0.5 0,-0.5"/>
<text text-anchor="middle" x="681.09" y="-243.1" font-family="Times,serif" font-size="14.00">GenericCompliance</text>
<text text-anchor="middle" x="681.09" y="-226.3" font-family="Times,serif" font-size="14.00">genericCompliance.sol</text>
<polyline fill="none" stroke="black" points="0,-218.1 1362.17,-218.1 "/>
<text text-anchor="start" x="8" y="-201.5" font-family="Times,serif" font-size="14.00">Private:</text>
<text text-anchor="start" x="8" y="-184.7" font-family="Times,serif" font-size="14.00"> &#160;&#160;objects: mapping(bytes32=&gt;Record)</text>
<text text-anchor="start" x="8" y="-167.9" font-family="Times,serif" font-size="14.00"> &#160;&#160;index: mapping(string=&gt;Store)</text>
<text text-anchor="start" x="8" y="-151.1" font-family="Times,serif" font-size="14.00"> &#160;&#160;keys: string[]</text>
<text text-anchor="start" x="8" y="-134.3" font-family="Times,serif" font-size="14.00">Public:</text>
<text text-anchor="start" x="8" y="-117.5" font-family="Times,serif" font-size="14.00"> &#160;&#160;version: string</text>
<text text-anchor="start" x="8" y="-100.7" font-family="Times,serif" font-size="14.00"> &#160;&#160;length: uint</text>
<polyline fill="none" stroke="black" points="0,-92.5 1362.17,-92.5 "/>
<text text-anchor="start" x="8" y="-75.9" font-family="Times,serif" font-size="14.00">Public:</text>
<text text-anchor="start" x="8" y="-59.1" font-family="Times,serif" font-size="14.00"> &#160;&#160;&#160;&lt;&lt;event&gt;&gt; AddEntry(id: bytes32, receivingEntityId: bytes32, resourceId: bytes32, organizationId: bytes32, ref: string, status: bytes32, hash: bytes32, documentIssueDate: uint, timestamp: uint, nonce: uint, notes: string, previous: bytes32)</text>
<text text-anchor="start" x="8" y="-42.3" font-family="Times,serif" font-size="14.00"> &#160;&#160;&#160;addEntry(key: string, receivingEntityId: bytes32, resourceId: bytes32, organizationId: bytes32, ref: string, status: bytes32, hash: bytes32, documentIssueDate: uint, notes: string): bool</text>
<text text-anchor="start" x="8" y="-25.5" font-family="Times,serif" font-size="14.00"> &#160;&#160;&#160;getEntry(_id: bytes32): (bytes32, bytes32, bytes32, bytes32, string, bytes32, bytes32, uint, uint, uint, string, bytes32)</text>
<text text-anchor="start" x="8" y="-8.7" font-family="Times,serif" font-size="14.00"> &#160;&#160;&#160;getLatest(_key: string): (bytes32, bytes32, bytes32, bytes32, string, bytes32, bytes32, uint, uint, uint, string, bytes32)</text>
</g>
<!-- 1 -->
<g id="node2" class="node">
<title>1</title>
<polygon fill="#f2f2f2" stroke="black" points="425.63,-296.7 425.63,-581.5 590.54,-581.5 590.54,-296.7 425.63,-296.7"/>
<text text-anchor="middle" x="508.09" y="-564.9" font-family="Times,serif" font-size="14.00">&lt;&lt;Struct&gt;&gt;</text>
<text text-anchor="middle" x="508.09" y="-548.1" font-family="Times,serif" font-size="14.00">Record</text>
<text text-anchor="middle" x="508.09" y="-531.3" font-family="Times,serif" font-size="14.00">genericCompliance.sol</text>
<polyline fill="none" stroke="black" points="425.63,-523.1 590.54,-523.1 "/>
<text text-anchor="start" x="433.63" y="-506.5" font-family="Times,serif" font-size="14.00">id: bytes32</text>
<text text-anchor="start" x="433.63" y="-489.7" font-family="Times,serif" font-size="14.00">receivingEntityId: bytes32</text>
<text text-anchor="start" x="433.63" y="-472.9" font-family="Times,serif" font-size="14.00">resourceId: bytes32</text>
<text text-anchor="start" x="433.63" y="-456.1" font-family="Times,serif" font-size="14.00">organizationId: bytes32</text>
<text text-anchor="start" x="433.63" y="-439.3" font-family="Times,serif" font-size="14.00">ref: string</text>
<text text-anchor="start" x="433.63" y="-422.5" font-family="Times,serif" font-size="14.00">status: bytes32</text>
<text text-anchor="start" x="433.63" y="-405.7" font-family="Times,serif" font-size="14.00">hash: bytes32</text>
<text text-anchor="start" x="433.63" y="-388.9" font-family="Times,serif" font-size="14.00">documentIssueDate: uint</text>
<text text-anchor="start" x="433.63" y="-372.1" font-family="Times,serif" font-size="14.00">timestamp: uint</text>
<text text-anchor="start" x="433.63" y="-355.3" font-family="Times,serif" font-size="14.00">nonce: uint</text>
<text text-anchor="start" x="433.63" y="-338.5" font-family="Times,serif" font-size="14.00">notes: string</text>
<text text-anchor="start" x="433.63" y="-321.7" font-family="Times,serif" font-size="14.00">previous: bytes32</text>
<text text-anchor="start" x="433.63" y="-304.9" font-family="Times,serif" font-size="14.00">isValue: bool</text>
</g>
<!-- 0&#45;&gt;1 -->
<g id="edge4" class="edge">
<title>0&#45;&gt;1</title>
<path fill="none" stroke="black" d="M601.8,-259.96C596.63,-269.04 591.42,-278.23 586.25,-287.42"/>
<polygon fill="black" stroke="black" points="583.16,-285.78 581.31,-296.21 589.26,-289.21 583.16,-285.78"/>
</g>
<!-- 2 -->
<g id="node3" class="node">
<title>2</title>
<polygon fill="#f2f2f2" stroke="black" points="608.75,-380.7 608.75,-497.5 753.43,-497.5 753.43,-380.7 608.75,-380.7"/>
<text text-anchor="middle" x="681.09" y="-480.9" font-family="Times,serif" font-size="14.00">&lt;&lt;Struct&gt;&gt;</text>
<text text-anchor="middle" x="681.09" y="-464.1" font-family="Times,serif" font-size="14.00">Store</text>
<text text-anchor="middle" x="681.09" y="-447.3" font-family="Times,serif" font-size="14.00">genericCompliance.sol</text>
<polyline fill="none" stroke="black" points="608.75,-439.1 753.43,-439.1 "/>
<text text-anchor="start" x="616.75" y="-422.5" font-family="Times,serif" font-size="14.00">head: bytes32</text>
<text text-anchor="start" x="616.75" y="-405.7" font-family="Times,serif" font-size="14.00">length: uint</text>
<text text-anchor="start" x="616.75" y="-388.9" font-family="Times,serif" font-size="14.00">isValue: bool</text>
</g>
<!-- 0&#45;&gt;2 -->
<g id="edge5" class="edge">
<title>0&#45;&gt;2</title>
<path fill="none" stroke="black" d="M674.41,-259.96C674.17,-297.87 674.49,-337.83 675.38,-370.28"/>
<polygon fill="black" stroke="black" points="671.88,-370.64 675.68,-380.54 678.88,-370.44 671.88,-370.64"/>
</g>
<!-- 3 -->
<g id="node4" class="node">
<title>3</title>
<polygon fill="#f2f2f2" stroke="black" points="771.75,-347.1 771.75,-531.1 916.43,-531.1 916.43,-347.1 771.75,-347.1"/>
<text text-anchor="middle" x="844.09" y="-514.5" font-family="Times,serif" font-size="14.00">&lt;&lt;Struct&gt;&gt;</text>
<text text-anchor="middle" x="844.09" y="-497.7" font-family="Times,serif" font-size="14.00">AddEntryVars</text>
<text text-anchor="middle" x="844.09" y="-480.9" font-family="Times,serif" font-size="14.00">genericCompliance.sol</text>
<polyline fill="none" stroke="black" points="771.75,-472.7 916.43,-472.7 "/>
<text text-anchor="start" x="779.75" y="-456.1" font-family="Times,serif" font-size="14.00">key: string</text>
<text text-anchor="start" x="779.75" y="-439.3" font-family="Times,serif" font-size="14.00">timestamp: uint</text>
<text text-anchor="start" x="779.75" y="-422.5" font-family="Times,serif" font-size="14.00">id: bytes32</text>
<text text-anchor="start" x="779.75" y="-405.7" font-family="Times,serif" font-size="14.00">previous: bytes32</text>
<text text-anchor="start" x="779.75" y="-388.9" font-family="Times,serif" font-size="14.00">offset: uint</text>
<text text-anchor="start" x="779.75" y="-372.1" font-family="Times,serif" font-size="14.00">nonce: uint</text>
<text text-anchor="start" x="779.75" y="-355.3" font-family="Times,serif" font-size="14.00">notes: string</text>
</g>
<!-- 0&#45;&gt;3 -->
<g id="edge6" class="edge">
<title>0&#45;&gt;3</title>
<path fill="none" stroke="black" stroke-dasharray="5,2" d="M742.83,-259.96C756.48,-285.97 770.9,-312.96 784.47,-337.82"/>
<polygon fill="black" stroke="black" points="781.55,-339.78 789.42,-346.87 787.69,-336.42 781.55,-339.78"/>
</g>
<!-- 1&#45;&gt;0 -->
<g id="edge1" class="edge">
<title>1&#45;&gt;0</title>
<path fill="none" stroke="black" d="M590.56,-303.65C596.81,-292.65 603.08,-281.53 609.26,-270.5"/>
<polygon fill="black" stroke="black" points="609.29,-270.44 608.73,-263.25 615.14,-259.96 615.71,-267.15 609.29,-270.44"/>
</g>
<!-- 2&#45;&gt;0 -->
<g id="edge2" class="edge">
<title>2&#45;&gt;0</title>
<path fill="none" stroke="black" d="M686.49,-380.54C687.5,-349.83 687.94,-310.57 687.82,-272.33"/>
<polygon fill="black" stroke="black" points="687.82,-271.96 683.79,-265.98 687.76,-259.96 691.79,-265.94 687.82,-271.96"/>
</g>
<!-- 3&#45;&gt;0 -->
<g id="edge3" class="edge">
<title>3&#45;&gt;0</title>
<path fill="none" stroke="black" d="M801.88,-346.87C789.58,-322.9 775.72,-296.49 761.89,-270.62"/>
<polygon fill="black" stroke="black" points="761.85,-270.54 755.49,-267.14 756.18,-259.96 762.54,-263.36 761.85,-270.54"/>
</g>
</g>
</svg>
