<?xml version="1.0" encoding="UTF-8" standalone="no"?>
<!DOCTYPE svg PUBLIC "-//W3C//DTD SVG 1.1//EN"
 "http://www.w3.org/Graphics/SVG/1.1/DTD/svg11.dtd">
<!-- Generated by graphviz version 5.0.0 (20220707.1540)
 -->
<!-- Title: StorageDiagram Pages: 1 -->
<svg width="939pt" height="500pt"
 viewBox="0.00 0.00 938.93 499.60" xmlns="http://www.w3.org/2000/svg" xmlns:xlink="http://www.w3.org/1999/xlink">
<g id="graph0" class="graph" transform="scale(1 1) rotate(0) translate(4 495.6)">
<title>StorageDiagram</title>
<polygon fill="white" stroke="transparent" points="-4,4 -4,-495.6 934.93,-495.6 934.93,4 -4,4"/>
<!-- 3 -->
<g id="node1" class="node">
<title>3</title>
<polygon fill="#f2f2f2" stroke="black" points="0,-140.3 0,-338.7 502.48,-338.7 502.48,-140.3 0,-140.3"/>
<text text-anchor="middle" x="251.24" y="-322.1" font-family="Courier New" font-size="14.00">GenericCompliance &lt;&lt;Contract&gt;&gt;</text>
<polyline fill="none" stroke="black" points="0,-313.9 502.48,-313.9 "/>
<text text-anchor="middle" x="24.8" y="-297.3" font-family="Courier New" font-size="14.00">slot</text>
<polyline fill="none" stroke="black" points="0,-289.1 49.61,-289.1 "/>
<text text-anchor="middle" x="24.8" y="-272.5" font-family="Courier New" font-size="14.00">0</text>
<polyline fill="none" stroke="black" points="0,-264.3 49.61,-264.3 "/>
<text text-anchor="middle" x="24.8" y="-247.7" font-family="Courier New" font-size="14.00">1</text>
<polyline fill="none" stroke="black" points="0,-239.5 49.61,-239.5 "/>
<text text-anchor="middle" x="24.8" y="-222.9" font-family="Courier New" font-size="14.00">2</text>
<polyline fill="none" stroke="black" points="0,-214.7 49.61,-214.7 "/>
<text text-anchor="middle" x="24.8" y="-198.1" font-family="Courier New" font-size="14.00">3</text>
<polyline fill="none" stroke="black" points="0,-189.9 49.61,-189.9 "/>
<text text-anchor="middle" x="24.8" y="-173.3" font-family="Courier New" font-size="14.00">4</text>
<polyline fill="none" stroke="black" points="0,-165.1 49.61,-165.1 "/>
<text text-anchor="middle" x="24.8" y="-148.5" font-family="Courier New" font-size="14.00">5</text>
<polyline fill="none" stroke="black" points="49.61,-140.3 49.61,-313.9 "/>
<text text-anchor="middle" x="276.04" y="-297.3" font-family="Courier New" font-size="14.00">type: &lt;inherited contract&gt;.variable (bytes)</text>
<polyline fill="none" stroke="black" points="49.61,-289.1 502.48,-289.1 "/>
<text text-anchor="middle" x="275.84" y="-272.5" font-family="Courier New" font-size="14.00">mapping(bytes32=&gt;bytes32[3]): entityRoles (32)</text>
<polyline fill="none" stroke="black" points="49.61,-264.3 502.48,-264.3 "/>
<text text-anchor="middle" x="275.74" y="-247.7" font-family="Courier New" font-size="14.00">mapping(bytes32=&gt;bytes32[3]): resourceRoles (32)</text>
<polyline fill="none" stroke="black" points="49.61,-239.5 502.48,-239.5 "/>
<text text-anchor="middle" x="276.04" y="-222.9" font-family="Courier New" font-size="14.00">mapping(bytes32=&gt;bytes32[3]): organizationRoles (32)</text>
<polyline fill="none" stroke="black" points="49.61,-214.7 502.48,-214.7 "/>
<text text-anchor="middle" x="275.73" y="-198.1" font-family="Courier New" font-size="14.00">mapping(bytes32=&gt;Record): objects (32)</text>
<polyline fill="none" stroke="black" points="49.61,-189.9 502.48,-189.9 "/>
<text text-anchor="middle" x="275.93" y="-173.3" font-family="Courier New" font-size="14.00">mapping(string=&gt;Store): index (32)</text>
<polyline fill="none" stroke="black" points="49.61,-165.1 502.48,-165.1 "/>
<text text-anchor="middle" x="276.02" y="-148.5" font-family="Courier New" font-size="14.00">uint: length (32)</text>
</g>
<!-- 1 -->
<g id="node2" class="node">
<title>1</title>
<polygon fill="#f2f2f2" stroke="black" points="538.48,-143.9 538.48,-491.1 930.93,-491.1 930.93,-143.9 538.48,-143.9"/>
<text text-anchor="middle" x="734.7" y="-474.5" font-family="Courier New" font-size="14.00">Record &lt;&lt;Struct&gt;&gt;</text>
<polyline fill="none" stroke="black" points="538.48,-466.3 930.93,-466.3 "/>
<text text-anchor="middle" x="571.68" y="-449.7" font-family="Courier New" font-size="14.00">offset</text>
<polyline fill="none" stroke="black" points="538.48,-441.5 604.88,-441.5 "/>
<text text-anchor="middle" x="571.68" y="-424.9" font-family="Courier New" font-size="14.00">0</text>
<polyline fill="none" stroke="black" points="538.48,-416.7 604.88,-416.7 "/>
<text text-anchor="middle" x="571.68" y="-400.1" font-family="Courier New" font-size="14.00">1</text>
<polyline fill="none" stroke="black" points="538.48,-391.9 604.88,-391.9 "/>
<text text-anchor="middle" x="571.68" y="-375.3" font-family="Courier New" font-size="14.00">2</text>
<polyline fill="none" stroke="black" points="538.48,-367.1 604.88,-367.1 "/>
<text text-anchor="middle" x="571.68" y="-350.5" font-family="Courier New" font-size="14.00">3</text>
<polyline fill="none" stroke="black" points="538.48,-342.3 604.88,-342.3 "/>
<text text-anchor="middle" x="571.68" y="-325.7" font-family="Courier New" font-size="14.00">4</text>
<polyline fill="none" stroke="black" points="538.48,-317.5 604.88,-317.5 "/>
<text text-anchor="middle" x="571.68" y="-300.9" font-family="Courier New" font-size="14.00">5</text>
<polyline fill="none" stroke="black" points="538.48,-292.7 604.88,-292.7 "/>
<text text-anchor="middle" x="571.68" y="-276.1" font-family="Courier New" font-size="14.00">6</text>
<polyline fill="none" stroke="black" points="538.48,-267.9 604.88,-267.9 "/>
<text text-anchor="middle" x="571.68" y="-251.3" font-family="Courier New" font-size="14.00">7</text>
<polyline fill="none" stroke="black" points="538.48,-243.1 604.88,-243.1 "/>
<text text-anchor="middle" x="571.68" y="-226.5" font-family="Courier New" font-size="14.00">8</text>
<polyline fill="none" stroke="black" points="538.48,-218.3 604.88,-218.3 "/>
<text text-anchor="middle" x="571.68" y="-201.7" font-family="Courier New" font-size="14.00">9</text>
<polyline fill="none" stroke="black" points="538.48,-193.5 604.88,-193.5 "/>
<text text-anchor="middle" x="571.68" y="-176.9" font-family="Courier New" font-size="14.00">10</text>
<polyline fill="none" stroke="black" points="538.48,-168.7 604.88,-168.7 "/>
<text text-anchor="middle" x="571.68" y="-152.1" font-family="Courier New" font-size="14.00">11</text>
<polyline fill="none" stroke="black" points="604.88,-143.9 604.88,-466.3 "/>
<text text-anchor="middle" x="767.91" y="-449.7" font-family="Courier New" font-size="14.00">type: variable (bytes)</text>
<polyline fill="none" stroke="black" points="604.88,-441.5 930.93,-441.5 "/>
<text text-anchor="middle" x="767.6" y="-424.9" font-family="Courier New" font-size="14.00">bytes32: id (32)</text>
<polyline fill="none" stroke="black" points="604.88,-416.7 930.93,-416.7 "/>
<text text-anchor="middle" x="767.61" y="-400.1" font-family="Courier New" font-size="14.00">bytes32: receivingEntityId (32)</text>
<polyline fill="none" stroke="black" points="604.88,-391.9 930.93,-391.9 "/>
<text text-anchor="middle" x="767.7" y="-375.3" font-family="Courier New" font-size="14.00">bytes32: resourceId (32)</text>
<polyline fill="none" stroke="black" points="604.88,-367.1 930.93,-367.1 "/>
<text text-anchor="middle" x="767.5" y="-350.5" font-family="Courier New" font-size="14.00">bytes32: organizationId (32)</text>
<polyline fill="none" stroke="black" points="604.88,-342.3 930.93,-342.3 "/>
<text text-anchor="middle" x="767.9" y="-325.7" font-family="Courier New" font-size="14.00">bytes32: status (32)</text>
<polyline fill="none" stroke="black" points="604.88,-317.5 930.93,-317.5 "/>
<text text-anchor="middle" x="767.8" y="-300.9" font-family="Courier New" font-size="14.00">bytes32: previous (32)</text>
<polyline fill="none" stroke="black" points="604.88,-292.7 930.93,-292.7 "/>
<text text-anchor="middle" x="680.1" y="-276.1" font-family="Courier New" font-size="14.00">unallocated (12)</text>
<polyline fill="none" stroke="black" points="755.31,-267.9 755.31,-292.7 "/>
<text text-anchor="middle" x="843.12" y="-276.1" font-family="Courier New" font-size="14.00">address: owner (20)</text>
<polyline fill="none" stroke="black" points="604.88,-267.9 930.93,-267.9 "/>
<text text-anchor="middle" x="767.6" y="-251.3" font-family="Courier New" font-size="14.00">uint: statusIssueDate (32)</text>
<polyline fill="none" stroke="black" points="604.88,-243.1 930.93,-243.1 "/>
<text text-anchor="middle" x="767.9" y="-226.5" font-family="Courier New" font-size="14.00">uint: timestamp (32)</text>
<polyline fill="none" stroke="black" points="604.88,-218.3 930.93,-218.3 "/>
<text text-anchor="middle" x="767.6" y="-201.7" font-family="Courier New" font-size="14.00">uint: nonce (32)</text>
<polyline fill="none" stroke="black" points="604.88,-193.5 930.93,-193.5 "/>
<text text-anchor="middle" x="767.6" y="-176.9" font-family="Courier New" font-size="14.00">string: ref (32)</text>
<polyline fill="none" stroke="black" points="604.88,-168.7 930.93,-168.7 "/>
<text text-anchor="middle" x="686.1" y="-152.1" font-family="Courier New" font-size="14.00">unallocated (31)</text>
<polyline fill="none" stroke="black" points="767.31,-143.9 767.31,-168.7 "/>
<text text-anchor="middle" x="849.02" y="-152.1" font-family="Courier New" font-size="14.00">bool: exists (1)</text>
</g>
<!-- 3&#45;&gt;1 -->
<g id="edge1" class="edge">
<title>3:16&#45;&gt;1</title>
<path fill="none" stroke="black" d="M502.48,-202.5C511.1,-202.5 519.73,-203.15 528.32,-204.35"/>
<polygon fill="black" stroke="black" points="527.94,-207.83 538.38,-206 529.08,-200.93 527.94,-207.83"/>
</g>
<!-- 2 -->
<g id="node3" class="node">
<title>2</title>
<polygon fill="#f2f2f2" stroke="black" points="551.08,-0.5 551.08,-124.5 918.33,-124.5 918.33,-0.5 551.08,-0.5"/>
<text text-anchor="middle" x="734.7" y="-107.9" font-family="Courier New" font-size="14.00">Store &lt;&lt;Struct&gt;&gt;</text>
<polyline fill="none" stroke="black" points="551.08,-99.7 918.33,-99.7 "/>
<text text-anchor="middle" x="584.28" y="-83.1" font-family="Courier New" font-size="14.00">offset</text>
<polyline fill="none" stroke="black" points="551.08,-74.9 617.49,-74.9 "/>
<text text-anchor="middle" x="584.28" y="-58.3" font-family="Courier New" font-size="14.00">0</text>
<polyline fill="none" stroke="black" points="551.08,-50.1 617.49,-50.1 "/>
<text text-anchor="middle" x="584.28" y="-33.5" font-family="Courier New" font-size="14.00">1</text>
<polyline fill="none" stroke="black" points="551.08,-25.3 617.49,-25.3 "/>
<text text-anchor="middle" x="584.28" y="-8.7" font-family="Courier New" font-size="14.00">2</text>
<polyline fill="none" stroke="black" points="617.49,-0.5 617.49,-99.7 "/>
<text text-anchor="middle" x="767.91" y="-83.1" font-family="Courier New" font-size="14.00">type: variable (bytes)</text>
<polyline fill="none" stroke="black" points="617.49,-74.9 918.33,-74.9 "/>
<text text-anchor="middle" x="767.6" y="-58.3" font-family="Courier New" font-size="14.00">bytes32: head (32)</text>
<polyline fill="none" stroke="black" points="617.49,-50.1 918.33,-50.1 "/>
<text text-anchor="middle" x="767.9" y="-33.5" font-family="Courier New" font-size="14.00">uint: length (32)</text>
<polyline fill="none" stroke="black" points="617.49,-25.3 918.33,-25.3 "/>
<text text-anchor="middle" x="692.7" y="-8.7" font-family="Courier New" font-size="14.00">unallocated (31)</text>
<polyline fill="none" stroke="black" points="767.91,-0.5 767.91,-25.3 "/>
<text text-anchor="middle" x="843.12" y="-8.7" font-family="Courier New" font-size="14.00">bool: exists (1)</text>
</g>
<!-- 3&#45;&gt;2 -->
<g id="edge2" class="edge">
<title>3:20&#45;&gt;2</title>
<path fill="none" stroke="black" d="M502.48,-177.5C527.4,-177.5 518.1,-148.85 538.48,-134.5 540.61,-133 542.78,-131.52 544.97,-130.08"/>
<polygon fill="black" stroke="black" points="547.01,-132.93 553.6,-124.63 543.28,-127.01 547.01,-132.93"/>
</g>
</g>
</svg>
