<?xml version="1.0" encoding="UTF-8" standalone="no"?>
<!DOCTYPE svg PUBLIC "-//W3C//DTD SVG 1.1//EN"
 "http://www.w3.org/Graphics/SVG/1.1/DTD/svg11.dtd">
<!-- Generated by graphviz version 5.0.0 (20220707.1540)
 -->
<!-- Title: StorageDiagram Pages: 1 -->
<svg width="947pt" height="618pt"
 viewBox="0.00 0.00 947.33 617.60" xmlns="http://www.w3.org/2000/svg" xmlns:xlink="http://www.w3.org/1999/xlink">
<g id="graph0" class="graph" transform="scale(1 1) rotate(0) translate(4 613.6)">
<title>StorageDiagram</title>
<polygon fill="white" stroke="transparent" points="-4,4 -4,-613.6 943.33,-613.6 943.33,4 -4,4"/>
<!-- 4 -->
<g id="node1" class="node">
<title>4</title>
<polygon fill="#f2f2f2" stroke="black" points="0,-255.9 0,-479.1 510.88,-479.1 510.88,-255.9 0,-255.9"/>
<text text-anchor="middle" x="255.44" y="-462.5" font-family="Courier New" font-size="14.00">GenericCompliance &lt;&lt;Contract&gt;&gt;</text>
<polyline fill="none" stroke="black" points="0,-454.3 510.88,-454.3 "/>
<text text-anchor="middle" x="24.8" y="-437.7" font-family="Courier New" font-size="14.00">slot</text>
<polyline fill="none" stroke="black" points="0,-429.5 49.61,-429.5 "/>
<text text-anchor="middle" x="24.8" y="-412.9" font-family="Courier New" font-size="14.00">0</text>
<polyline fill="none" stroke="black" points="0,-404.7 49.61,-404.7 "/>
<text text-anchor="middle" x="24.8" y="-388.1" font-family="Courier New" font-size="14.00">1</text>
<polyline fill="none" stroke="black" points="0,-379.9 49.61,-379.9 "/>
<text text-anchor="middle" x="24.8" y="-363.3" font-family="Courier New" font-size="14.00">2</text>
<polyline fill="none" stroke="black" points="0,-355.1 49.61,-355.1 "/>
<text text-anchor="middle" x="24.8" y="-338.5" font-family="Courier New" font-size="14.00">3</text>
<polyline fill="none" stroke="black" points="0,-330.3 49.61,-330.3 "/>
<text text-anchor="middle" x="24.8" y="-313.7" font-family="Courier New" font-size="14.00">4</text>
<polyline fill="none" stroke="black" points="0,-305.5 49.61,-305.5 "/>
<text text-anchor="middle" x="24.8" y="-288.9" font-family="Courier New" font-size="14.00">5</text>
<polyline fill="none" stroke="black" points="0,-280.7 49.61,-280.7 "/>
<text text-anchor="middle" x="24.8" y="-264.1" font-family="Courier New" font-size="14.00">6</text>
<polyline fill="none" stroke="black" points="49.61,-255.9 49.61,-454.3 "/>
<text text-anchor="middle" x="280.24" y="-437.7" font-family="Courier New" font-size="14.00">type: &lt;inherited contract&gt;.variable (bytes)</text>
<polyline fill="none" stroke="black" points="49.61,-429.5 510.88,-429.5 "/>
<text text-anchor="middle" x="280.24" y="-412.9" font-family="Courier New" font-size="14.00">mapping(bytes32=&gt;RoleData): AccessControl._roles (32)</text>
<polyline fill="none" stroke="black" points="49.61,-404.7 510.88,-404.7 "/>
<text text-anchor="middle" x="279.84" y="-388.1" font-family="Courier New" font-size="14.00">mapping(bytes32=&gt;bytes32[3]): entityRoles (32)</text>
<polyline fill="none" stroke="black" points="49.61,-379.9 510.88,-379.9 "/>
<text text-anchor="middle" x="280.24" y="-363.3" font-family="Courier New" font-size="14.00">mapping(bytes32=&gt;bytes32[3]): resourceRoles (32)</text>
<polyline fill="none" stroke="black" points="49.61,-355.1 510.88,-355.1 "/>
<text text-anchor="middle" x="280.04" y="-338.5" font-family="Courier New" font-size="14.00">mapping(bytes32=&gt;bytes32[3]): organizationRoles (32)</text>
<polyline fill="none" stroke="black" points="49.61,-330.3 510.88,-330.3 "/>
<text text-anchor="middle" x="280.23" y="-313.7" font-family="Courier New" font-size="14.00">mapping(bytes32=&gt;Record): objects (32)</text>
<polyline fill="none" stroke="black" points="49.61,-305.5 510.88,-305.5 "/>
<text text-anchor="middle" x="279.93" y="-288.9" font-family="Courier New" font-size="14.00">mapping(string=&gt;Store): index (32)</text>
<polyline fill="none" stroke="black" points="49.61,-280.7 510.88,-280.7 "/>
<text text-anchor="middle" x="280.02" y="-264.1" font-family="Courier New" font-size="14.00">uint: length (32)</text>
</g>
<!-- 1 -->
<g id="node2" class="node">
<title>1</title>
<polygon fill="#f2f2f2" stroke="black" points="550.68,-509.9 550.68,-609.1 935.53,-609.1 935.53,-509.9 550.68,-509.9"/>
<text text-anchor="middle" x="743.11" y="-592.5" font-family="Courier New" font-size="14.00">RoleData &lt;&lt;Struct&gt;&gt;</text>
<polyline fill="none" stroke="black" points="550.68,-584.3 935.53,-584.3 "/>
<text text-anchor="middle" x="583.88" y="-567.7" font-family="Courier New" font-size="14.00">offset</text>
<polyline fill="none" stroke="black" points="550.68,-559.5 617.09,-559.5 "/>
<text text-anchor="middle" x="583.88" y="-542.9" font-family="Courier New" font-size="14.00">0</text>
<polyline fill="none" stroke="black" points="550.68,-534.7 617.09,-534.7 "/>
<text text-anchor="middle" x="583.88" y="-518.1" font-family="Courier New" font-size="14.00">1</text>
<polyline fill="none" stroke="black" points="617.09,-509.9 617.09,-584.3 "/>
<text text-anchor="middle" x="776.31" y="-567.7" font-family="Courier New" font-size="14.00">type: variable (bytes)</text>
<polyline fill="none" stroke="black" points="617.09,-559.5 935.53,-559.5 "/>
<text text-anchor="middle" x="776.31" y="-542.9" font-family="Courier New" font-size="14.00">mapping(address=&gt;bool): hasRole (32)</text>
<polyline fill="none" stroke="black" points="617.09,-534.7 935.53,-534.7 "/>
<text text-anchor="middle" x="776.2" y="-518.1" font-family="Courier New" font-size="14.00">bytes32: adminRole (32)</text>
</g>
<!-- 4&#45;&gt;1 -->
<g id="edge1" class="edge">
<title>4:3&#45;&gt;1</title>
<path fill="none" stroke="black" d="M510.88,-417.5C551.09,-417.5 516.85,-473.76 546.88,-500.5 548.03,-501.53 549.21,-502.54 550.4,-503.54"/>
<polygon fill="black" stroke="black" points="548.45,-506.46 558.49,-509.85 552.76,-500.94 548.45,-506.46"/>
</g>
<!-- 2 -->
<g id="node3" class="node">
<title>2</title>
<polygon fill="#f2f2f2" stroke="black" points="546.88,-143.9 546.88,-491.1 939.33,-491.1 939.33,-143.9 546.88,-143.9"/>
<text text-anchor="middle" x="743.11" y="-474.5" font-family="Courier New" font-size="14.00">Record &lt;&lt;Struct&gt;&gt;</text>
<polyline fill="none" stroke="black" points="546.88,-466.3 939.33,-466.3 "/>
<text text-anchor="middle" x="580.08" y="-449.7" font-family="Courier New" font-size="14.00">offset</text>
<polyline fill="none" stroke="black" points="546.88,-441.5 613.29,-441.5 "/>
<text text-anchor="middle" x="580.08" y="-424.9" font-family="Courier New" font-size="14.00">0</text>
<polyline fill="none" stroke="black" points="546.88,-416.7 613.29,-416.7 "/>
<text text-anchor="middle" x="580.08" y="-400.1" font-family="Courier New" font-size="14.00">1</text>
<polyline fill="none" stroke="black" points="546.88,-391.9 613.29,-391.9 "/>
<text text-anchor="middle" x="580.08" y="-375.3" font-family="Courier New" font-size="14.00">2</text>
<polyline fill="none" stroke="black" points="546.88,-367.1 613.29,-367.1 "/>
<text text-anchor="middle" x="580.08" y="-350.5" font-family="Courier New" font-size="14.00">3</text>
<polyline fill="none" stroke="black" points="546.88,-342.3 613.29,-342.3 "/>
<text text-anchor="middle" x="580.08" y="-325.7" font-family="Courier New" font-size="14.00">4</text>
<polyline fill="none" stroke="black" points="546.88,-317.5 613.29,-317.5 "/>
<text text-anchor="middle" x="580.08" y="-300.9" font-family="Courier New" font-size="14.00">5</text>
<polyline fill="none" stroke="black" points="546.88,-292.7 613.29,-292.7 "/>
<text text-anchor="middle" x="580.08" y="-276.1" font-family="Courier New" font-size="14.00">6</text>
<polyline fill="none" stroke="black" points="546.88,-267.9 613.29,-267.9 "/>
<text text-anchor="middle" x="580.08" y="-251.3" font-family="Courier New" font-size="14.00">7</text>
<polyline fill="none" stroke="black" points="546.88,-243.1 613.29,-243.1 "/>
<text text-anchor="middle" x="580.08" y="-226.5" font-family="Courier New" font-size="14.00">8</text>
<polyline fill="none" stroke="black" points="546.88,-218.3 613.29,-218.3 "/>
<text text-anchor="middle" x="580.08" y="-201.7" font-family="Courier New" font-size="14.00">9</text>
<polyline fill="none" stroke="black" points="546.88,-193.5 613.29,-193.5 "/>
<text text-anchor="middle" x="580.08" y="-176.9" font-family="Courier New" font-size="14.00">10</text>
<polyline fill="none" stroke="black" points="546.88,-168.7 613.29,-168.7 "/>
<text text-anchor="middle" x="580.08" y="-152.1" font-family="Courier New" font-size="14.00">11</text>
<polyline fill="none" stroke="black" points="613.29,-143.9 613.29,-466.3 "/>
<text text-anchor="middle" x="776.31" y="-449.7" font-family="Courier New" font-size="14.00">type: variable (bytes)</text>
<polyline fill="none" stroke="black" points="613.29,-441.5 939.33,-441.5 "/>
<text text-anchor="middle" x="776" y="-424.9" font-family="Courier New" font-size="14.00">bytes32: id (32)</text>
<polyline fill="none" stroke="black" points="613.29,-416.7 939.33,-416.7 "/>
<text text-anchor="middle" x="776.01" y="-400.1" font-family="Courier New" font-size="14.00">bytes32: receivingEntityId (32)</text>
<polyline fill="none" stroke="black" points="613.29,-391.9 939.33,-391.9 "/>
<text text-anchor="middle" x="776.1" y="-375.3" font-family="Courier New" font-size="14.00">bytes32: resourceId (32)</text>
<polyline fill="none" stroke="black" points="613.29,-367.1 939.33,-367.1 "/>
<text text-anchor="middle" x="775.91" y="-350.5" font-family="Courier New" font-size="14.00">bytes32: organizationId (32)</text>
<polyline fill="none" stroke="black" points="613.29,-342.3 939.33,-342.3 "/>
<text text-anchor="middle" x="776.3" y="-325.7" font-family="Courier New" font-size="14.00">bytes32: status (32)</text>
<polyline fill="none" stroke="black" points="613.29,-317.5 939.33,-317.5 "/>
<text text-anchor="middle" x="776.2" y="-300.9" font-family="Courier New" font-size="14.00">bytes32: previous (32)</text>
<polyline fill="none" stroke="black" points="613.29,-292.7 939.33,-292.7 "/>
<text text-anchor="middle" x="688.5" y="-276.1" font-family="Courier New" font-size="14.00">unallocated (12)</text>
<polyline fill="none" stroke="black" points="763.71,-267.9 763.71,-292.7 "/>
<text text-anchor="middle" x="851.52" y="-276.1" font-family="Courier New" font-size="14.00">address: owner (20)</text>
<polyline fill="none" stroke="black" points="613.29,-267.9 939.33,-267.9 "/>
<text text-anchor="middle" x="776" y="-251.3" font-family="Courier New" font-size="14.00">uint: statusIssueDate (32)</text>
<polyline fill="none" stroke="black" points="613.29,-243.1 939.33,-243.1 "/>
<text text-anchor="middle" x="776.3" y="-226.5" font-family="Courier New" font-size="14.00">uint: timestamp (32)</text>
<polyline fill="none" stroke="black" points="613.29,-218.3 939.33,-218.3 "/>
<text text-anchor="middle" x="776" y="-201.7" font-family="Courier New" font-size="14.00">uint: nonce (32)</text>
<polyline fill="none" stroke="black" points="613.29,-193.5 939.33,-193.5 "/>
<text text-anchor="middle" x="776" y="-176.9" font-family="Courier New" font-size="14.00">string: ref (32)</text>
<polyline fill="none" stroke="black" points="613.29,-168.7 939.33,-168.7 "/>
<text text-anchor="middle" x="694.5" y="-152.1" font-family="Courier New" font-size="14.00">unallocated (31)</text>
<polyline fill="none" stroke="black" points="775.71,-143.9 775.71,-168.7 "/>
<text text-anchor="middle" x="857.42" y="-152.1" font-family="Courier New" font-size="14.00">bool: exists (1)</text>
</g>
<!-- 4&#45;&gt;2 -->
<g id="edge2" class="edge">
<title>4:19&#45;&gt;2</title>
<path fill="none" stroke="black" d="M510.88,-317.5C519.25,-317.5 527.78,-317.5 536.41,-317.5"/>
<polygon fill="black" stroke="black" points="536.57,-321 546.57,-317.5 536.57,-314 536.57,-321"/>
</g>
<!-- 3 -->
<g id="node4" class="node">
<title>3</title>
<polygon fill="#f2f2f2" stroke="black" points="559.48,-0.5 559.48,-124.5 926.73,-124.5 926.73,-0.5 559.48,-0.5"/>
<text text-anchor="middle" x="743.11" y="-107.9" font-family="Courier New" font-size="14.00">Store &lt;&lt;Struct&gt;&gt;</text>
<polyline fill="none" stroke="black" points="559.48,-99.7 926.73,-99.7 "/>
<text text-anchor="middle" x="592.68" y="-83.1" font-family="Courier New" font-size="14.00">offset</text>
<polyline fill="none" stroke="black" points="559.48,-74.9 625.89,-74.9 "/>
<text text-anchor="middle" x="592.68" y="-58.3" font-family="Courier New" font-size="14.00">0</text>
<polyline fill="none" stroke="black" points="559.48,-50.1 625.89,-50.1 "/>
<text text-anchor="middle" x="592.68" y="-33.5" font-family="Courier New" font-size="14.00">1</text>
<polyline fill="none" stroke="black" points="559.48,-25.3 625.89,-25.3 "/>
<text text-anchor="middle" x="592.68" y="-8.7" font-family="Courier New" font-size="14.00">2</text>
<polyline fill="none" stroke="black" points="625.89,-0.5 625.89,-99.7 "/>
<text text-anchor="middle" x="776.31" y="-83.1" font-family="Courier New" font-size="14.00">type: variable (bytes)</text>
<polyline fill="none" stroke="black" points="625.89,-74.9 926.73,-74.9 "/>
<text text-anchor="middle" x="776" y="-58.3" font-family="Courier New" font-size="14.00">bytes32: head (32)</text>
<polyline fill="none" stroke="black" points="625.89,-50.1 926.73,-50.1 "/>
<text text-anchor="middle" x="776.3" y="-33.5" font-family="Courier New" font-size="14.00">uint: length (32)</text>
<polyline fill="none" stroke="black" points="625.89,-25.3 926.73,-25.3 "/>
<text text-anchor="middle" x="701.1" y="-8.7" font-family="Courier New" font-size="14.00">unallocated (31)</text>
<polyline fill="none" stroke="black" points="776.31,-0.5 776.31,-25.3 "/>
<text text-anchor="middle" x="851.52" y="-8.7" font-family="Courier New" font-size="14.00">bool: exists (1)</text>
</g>
<!-- 4&#45;&gt;3 -->
<g id="edge3" class="edge">
<title>4:23&#45;&gt;3</title>
<path fill="none" stroke="black" d="M510.88,-293.5C583.33,-293.5 499.1,-188.97 546.88,-134.5 548.43,-132.73 550.02,-131.01 551.66,-129.33"/>
<polygon fill="black" stroke="black" points="554.29,-131.66 559.12,-122.23 549.46,-126.59 554.29,-131.66"/>
</g>
</g>
</svg>
