<?xml version="1.0" encoding="UTF-8" standalone="no"?>
<!DOCTYPE svg PUBLIC "-//W3C//DTD SVG 1.1//EN"
 "http://www.w3.org/Graphics/SVG/1.1/DTD/svg11.dtd">
<!-- Generated by graphviz version 5.0.0 (20220707.1540)
 -->
<!-- Title: StorageDiagram Pages: 1 -->
<svg width="1041pt" height="635pt"
 viewBox="0.00 0.00 1041.35 634.60" xmlns="http://www.w3.org/2000/svg" xmlns:xlink="http://www.w3.org/1999/xlink">
<g id="graph0" class="graph" transform="scale(1 1) rotate(0) translate(4 630.6)">
<title>StorageDiagram</title>
<polygon fill="white" stroke="transparent" points="-4,4 -4,-630.6 1037.35,-630.6 1037.35,4 -4,4"/>
<!-- 4 -->
<g id="node1" class="node">
<title>4</title>
<polygon fill="#f2f2f2" stroke="black" points="0,-110.7 0,-259.5 426.86,-259.5 426.86,-110.7 0,-110.7"/>
<text text-anchor="middle" x="213.43" y="-242.9" font-family="Courier New" font-size="14.00">GenericCompliance &lt;&lt;Contract&gt;&gt;</text>
<polyline fill="none" stroke="black" points="0,-234.7 426.86,-234.7 "/>
<text text-anchor="middle" x="24.8" y="-218.1" font-family="Courier New" font-size="14.00">slot</text>
<polyline fill="none" stroke="black" points="0,-209.9 49.61,-209.9 "/>
<text text-anchor="middle" x="24.8" y="-193.3" font-family="Courier New" font-size="14.00">0</text>
<polyline fill="none" stroke="black" points="0,-185.1 49.61,-185.1 "/>
<text text-anchor="middle" x="24.8" y="-168.5" font-family="Courier New" font-size="14.00">1</text>
<polyline fill="none" stroke="black" points="0,-160.3 49.61,-160.3 "/>
<text text-anchor="middle" x="24.8" y="-143.7" font-family="Courier New" font-size="14.00">2</text>
<polyline fill="none" stroke="black" points="0,-135.5 49.61,-135.5 "/>
<text text-anchor="middle" x="24.8" y="-118.9" font-family="Courier New" font-size="14.00">3</text>
<polyline fill="none" stroke="black" points="49.61,-110.7 49.61,-234.7 "/>
<text text-anchor="middle" x="238.23" y="-218.1" font-family="Courier New" font-size="14.00">type: &lt;inherited contract&gt;.variable (bytes)</text>
<polyline fill="none" stroke="black" points="49.61,-209.9 426.86,-209.9 "/>
<text text-anchor="middle" x="238.23" y="-193.3" font-family="Courier New" font-size="14.00">mapping(bytes32=&gt;Record): objects (32)</text>
<polyline fill="none" stroke="black" points="49.61,-185.1 426.86,-185.1 "/>
<text text-anchor="middle" x="237.93" y="-168.5" font-family="Courier New" font-size="14.00">mapping(string=&gt;Store): index (32)</text>
<polyline fill="none" stroke="black" points="49.61,-160.3 426.86,-160.3 "/>
<text text-anchor="middle" x="238.02" y="-143.7" font-family="Courier New" font-size="14.00">uint: length (32)</text>
<polyline fill="none" stroke="black" points="49.61,-135.5 426.86,-135.5 "/>
<text text-anchor="middle" x="237.92" y="-118.9" font-family="Courier New" font-size="14.00">string[]: keys (32)</text>
</g>
<!-- 1 -->
<g id="node2" class="node">
<title>1</title>
<polygon fill="#f2f2f2" stroke="black" points="560.28,-254.1 560.28,-626.1 935.94,-626.1 935.94,-254.1 560.28,-254.1"/>
<text text-anchor="middle" x="748.11" y="-609.5" font-family="Courier New" font-size="14.00">Record &lt;&lt;Struct&gt;&gt;</text>
<polyline fill="none" stroke="black" points="560.28,-601.3 935.94,-601.3 "/>
<text text-anchor="middle" x="593.49" y="-584.7" font-family="Courier New" font-size="14.00">offset</text>
<polyline fill="none" stroke="black" points="560.28,-576.5 626.69,-576.5 "/>
<text text-anchor="middle" x="593.49" y="-559.9" font-family="Courier New" font-size="14.00">0</text>
<polyline fill="none" stroke="black" points="560.28,-551.7 626.69,-551.7 "/>
<text text-anchor="middle" x="593.49" y="-535.1" font-family="Courier New" font-size="14.00">1</text>
<polyline fill="none" stroke="black" points="560.28,-526.9 626.69,-526.9 "/>
<text text-anchor="middle" x="593.49" y="-510.3" font-family="Courier New" font-size="14.00">2</text>
<polyline fill="none" stroke="black" points="560.28,-502.1 626.69,-502.1 "/>
<text text-anchor="middle" x="593.49" y="-485.5" font-family="Courier New" font-size="14.00">3</text>
<polyline fill="none" stroke="black" points="560.28,-477.3 626.69,-477.3 "/>
<text text-anchor="middle" x="593.49" y="-460.7" font-family="Courier New" font-size="14.00">4</text>
<polyline fill="none" stroke="black" points="560.28,-452.5 626.69,-452.5 "/>
<text text-anchor="middle" x="593.49" y="-435.9" font-family="Courier New" font-size="14.00">5</text>
<polyline fill="none" stroke="black" points="560.28,-427.7 626.69,-427.7 "/>
<text text-anchor="middle" x="593.49" y="-411.1" font-family="Courier New" font-size="14.00">6</text>
<polyline fill="none" stroke="black" points="560.28,-402.9 626.69,-402.9 "/>
<text text-anchor="middle" x="593.49" y="-386.3" font-family="Courier New" font-size="14.00">7</text>
<polyline fill="none" stroke="black" points="560.28,-378.1 626.69,-378.1 "/>
<text text-anchor="middle" x="593.49" y="-361.5" font-family="Courier New" font-size="14.00">8</text>
<polyline fill="none" stroke="black" points="560.28,-353.3 626.69,-353.3 "/>
<text text-anchor="middle" x="593.49" y="-336.7" font-family="Courier New" font-size="14.00">9</text>
<polyline fill="none" stroke="black" points="560.28,-328.5 626.69,-328.5 "/>
<text text-anchor="middle" x="593.49" y="-311.9" font-family="Courier New" font-size="14.00">10</text>
<polyline fill="none" stroke="black" points="560.28,-303.7 626.69,-303.7 "/>
<text text-anchor="middle" x="593.49" y="-287.1" font-family="Courier New" font-size="14.00">11</text>
<polyline fill="none" stroke="black" points="560.28,-278.9 626.69,-278.9 "/>
<text text-anchor="middle" x="593.49" y="-262.3" font-family="Courier New" font-size="14.00">12</text>
<polyline fill="none" stroke="black" points="626.69,-254.1 626.69,-601.3 "/>
<text text-anchor="middle" x="781.31" y="-584.7" font-family="Courier New" font-size="14.00">type: variable (bytes)</text>
<polyline fill="none" stroke="black" points="626.69,-576.5 935.94,-576.5 "/>
<text text-anchor="middle" x="780.9" y="-559.9" font-family="Courier New" font-size="14.00">bytes32: id (32)</text>
<polyline fill="none" stroke="black" points="626.69,-551.7 935.94,-551.7 "/>
<text text-anchor="middle" x="780.91" y="-535.1" font-family="Courier New" font-size="14.00">bytes32: receivingEntityId (32)</text>
<polyline fill="none" stroke="black" points="626.69,-526.9 935.94,-526.9 "/>
<text text-anchor="middle" x="781.01" y="-510.3" font-family="Courier New" font-size="14.00">bytes32: resourceId (32)</text>
<polyline fill="none" stroke="black" points="626.69,-502.1 935.94,-502.1 "/>
<text text-anchor="middle" x="781.31" y="-485.5" font-family="Courier New" font-size="14.00">bytes32: organizationId (32)</text>
<polyline fill="none" stroke="black" points="626.69,-477.3 935.94,-477.3 "/>
<text text-anchor="middle" x="780.9" y="-460.7" font-family="Courier New" font-size="14.00">string: ref (32)</text>
<polyline fill="none" stroke="black" points="626.69,-452.5 935.94,-452.5 "/>
<text text-anchor="middle" x="781.2" y="-435.9" font-family="Courier New" font-size="14.00">bytes32: status (32)</text>
<polyline fill="none" stroke="black" points="626.69,-427.7 935.94,-427.7 "/>
<text text-anchor="middle" x="781.3" y="-411.1" font-family="Courier New" font-size="14.00">bytes32: hash (32)</text>
<polyline fill="none" stroke="black" points="626.69,-402.9 935.94,-402.9 "/>
<text text-anchor="middle" x="781.31" y="-386.3" font-family="Courier New" font-size="14.00">uint: documentIssueDate (32)</text>
<polyline fill="none" stroke="black" points="626.69,-378.1 935.94,-378.1 "/>
<text text-anchor="middle" x="781.2" y="-361.5" font-family="Courier New" font-size="14.00">uint: timestamp (32)</text>
<polyline fill="none" stroke="black" points="626.69,-353.3 935.94,-353.3 "/>
<text text-anchor="middle" x="780.9" y="-336.7" font-family="Courier New" font-size="14.00">uint: nonce (32)</text>
<polyline fill="none" stroke="black" points="626.69,-328.5 935.94,-328.5 "/>
<text text-anchor="middle" x="781.3" y="-311.9" font-family="Courier New" font-size="14.00">string: notes (32)</text>
<polyline fill="none" stroke="black" points="626.69,-303.7 935.94,-303.7 "/>
<text text-anchor="middle" x="781.11" y="-287.1" font-family="Courier New" font-size="14.00">bytes32: previous (32)</text>
<polyline fill="none" stroke="black" points="626.69,-278.9 935.94,-278.9 "/>
<text text-anchor="middle" x="701.9" y="-262.3" font-family="Courier New" font-size="14.00">unallocated (31)</text>
<polyline fill="none" stroke="black" points="777.11,-254.1 777.11,-278.9 "/>
<text text-anchor="middle" x="856.52" y="-262.3" font-family="Courier New" font-size="14.00">bool: isValue (1)</text>
</g>
<!-- 4&#45;&gt;1 -->
<g id="edge1" class="edge">
<title>4:14&#45;&gt;1</title>
<path fill="none" stroke="black" d="M426.86,-197.1C453.53,-197.1 443.61,-226.65 462.86,-245.1 489.93,-271.05 520.77,-295.97 551.92,-318.82"/>
<polygon fill="black" stroke="black" points="550.13,-321.85 560.28,-324.9 554.25,-316.19 550.13,-321.85"/>
</g>
<!-- 2 -->
<g id="node3" class="node">
<title>2</title>
<polygon fill="#f2f2f2" stroke="black" points="560.28,-111.1 560.28,-235.1 935.94,-235.1 935.94,-111.1 560.28,-111.1"/>
<text text-anchor="middle" x="748.11" y="-218.5" font-family="Courier New" font-size="14.00">Store &lt;&lt;Struct&gt;&gt;</text>
<polyline fill="none" stroke="black" points="560.28,-210.3 935.94,-210.3 "/>
<text text-anchor="middle" x="593.49" y="-193.7" font-family="Courier New" font-size="14.00">offset</text>
<polyline fill="none" stroke="black" points="560.28,-185.5 626.69,-185.5 "/>
<text text-anchor="middle" x="593.49" y="-168.9" font-family="Courier New" font-size="14.00">0</text>
<polyline fill="none" stroke="black" points="560.28,-160.7 626.69,-160.7 "/>
<text text-anchor="middle" x="593.49" y="-144.1" font-family="Courier New" font-size="14.00">1</text>
<polyline fill="none" stroke="black" points="560.28,-135.9 626.69,-135.9 "/>
<text text-anchor="middle" x="593.49" y="-119.3" font-family="Courier New" font-size="14.00">2</text>
<polyline fill="none" stroke="black" points="626.69,-111.1 626.69,-210.3 "/>
<text text-anchor="middle" x="781.31" y="-193.7" font-family="Courier New" font-size="14.00">type: variable (bytes)</text>
<polyline fill="none" stroke="black" points="626.69,-185.5 935.94,-185.5 "/>
<text text-anchor="middle" x="781.3" y="-168.9" font-family="Courier New" font-size="14.00">bytes32: head (32)</text>
<polyline fill="none" stroke="black" points="626.69,-160.7 935.94,-160.7 "/>
<text text-anchor="middle" x="781.1" y="-144.1" font-family="Courier New" font-size="14.00">uint: length (32)</text>
<polyline fill="none" stroke="black" points="626.69,-135.9 935.94,-135.9 "/>
<text text-anchor="middle" x="701.9" y="-119.3" font-family="Courier New" font-size="14.00">unallocated (31)</text>
<polyline fill="none" stroke="black" points="777.11,-111.1 777.11,-135.9 "/>
<text text-anchor="middle" x="856.52" y="-119.3" font-family="Courier New" font-size="14.00">bool: isValue (1)</text>
</g>
<!-- 4&#45;&gt;2 -->
<g id="edge2" class="edge">
<title>4:18&#45;&gt;2</title>
<path fill="none" stroke="black" d="M426.86,-173.1C466.67,-173.1 509.26,-173.1 549.96,-173.1"/>
<polygon fill="black" stroke="black" points="549.99,-176.6 559.99,-173.1 549.99,-169.6 549.99,-176.6"/>
</g>
<!-- 3 -->
<g id="node4" class="node">
<title>3</title>
<polygon fill="#f2f2f2" stroke="black" points="462.86,-0.5 462.86,-91.7 1033.35,-91.7 1033.35,-0.5 462.86,-0.5"/>
<text text-anchor="middle" x="748.11" y="-75.1" font-family="Courier New" font-size="14.00">string[]: keys &lt;&lt;Array&gt;&gt;</text>
<text text-anchor="middle" x="748.11" y="-58.3" font-family="Courier New" font-size="14.00">0xc2575a0e9e593c00f959f8c92f12db2869c3395a3b0502d05e2516446f71f85b</text>
<polyline fill="none" stroke="black" points="462.86,-50.1 1033.35,-50.1 "/>
<text text-anchor="middle" x="571.57" y="-33.5" font-family="Courier New" font-size="14.00">offset</text>
<polyline fill="none" stroke="black" points="462.86,-25.3 680.27,-25.3 "/>
<text text-anchor="middle" x="571.57" y="-8.7" font-family="Courier New" font-size="14.00">0</text>
<polyline fill="none" stroke="black" points="680.27,-0.5 680.27,-50.1 "/>
<text text-anchor="middle" x="856.69" y="-33.5" font-family="Courier New" font-size="14.00">type: variable (bytes)</text>
<polyline fill="none" stroke="black" points="680.27,-25.3 1033.1,-25.3 "/>
<text text-anchor="middle" x="856.48" y="-8.7" font-family="Courier New" font-size="14.00">string (32)</text>
</g>
<!-- 4&#45;&gt;3 -->
<g id="edge3" class="edge">
<title>4:21&#45;&gt;3</title>
<path fill="none" stroke="black" d="M426.86,-123.1C445.39,-123.1 445.54,-108.65 462.86,-102.1 469.58,-99.56 476.42,-97.14 483.37,-94.81"/>
<polygon fill="black" stroke="black" points="484.47,-98.13 492.9,-91.71 482.3,-91.48 484.47,-98.13"/>
</g>
</g>
</svg>
